  0
SECTION
  2
HEADER
  9
$ACADVER
  1
AC1009
  9
$INSBASE
 10
0.0
 20
0.0
 30
0.0
  9
$EXTMIN
 10
0.0
 20
0.0
 30
0.0
  9
$EXTMAX
 10
0.0
 20
0.0
 30
0.0
  0
ENDSEC
  0
SECTION
  2
TABLES
  0
TABLE
  2
VPORT
 70
1
  0
VPORT
  2
*ACTIVE
 70
0
 10
0.0
 20
0.0
 11
1.0
 21
1.0
 12
-5.0
 22
1.0
 13
0.0
 23
0.0
 14
0.1
 24
0.1
 15
0.1
 25
0.1
 16
0.0
 26
0.0
 36
1.0
 17
0.0
 27
0.0
 37
0.0
 40
10.0
 41
1.0
 42
50.0
 43
0.0
 44
0.0
 50
0.0
 51
0.0
 71
0
 72
100
 73
1
 74
1
 75
0
 76
0
 77
0
 78
0
  0
ENDTAB
  0
TABLE
  2
LTYPE
 70
8
  0
LTYPE
  2
CONTINUOUS
 70
0
  3
Solid line
 72
65
 73
0
 40
0.0
  0
LTYPE
  2
DOT
 70
0
  3
. . . . . . .
 72
65
 73
2
 40
0.25
 49
0.0
 49
-0.25
  0
LTYPE
  2
DASHED
 70
0
  3
__ __ __ __ __
 72
65
 73
2
 40
0.8
 49
0.5
 49
-0.3
  0
LTYPE
  2
DASHDOT
 70
0
  3
__ . __ . __ .
 72
65
 73
4
 40
1.0
 49
0.5
 49
-0.25
 49
0.0
 49
-0.25
  0
LTYPE
  2
DIVIDE
 70
0
  3
____ . . ____ . . 
 72
65
 73
6
 40
1.25
 49
0.5
 49
-0.25
 49
0.0
 49
-0.25
 49
0.0
 49
-0.25
  0
LTYPE
  2
BORDER
 70
0
  3
__ __ . __ __ . 
 72
65
 73
6
 40
1.75
 49
0.5
 49
-0.25
 49
0.5
 49
-0.25
 49
0.0
 49
-0.25
  0
LTYPE
  2
HIDDEN
 70
0
  3
__ __ __ __ __
 72
65
 73
2
 40
0.4
 49
0.25
 49
-0.25
  0
LTYPE
  2
CENTER
 70
0
  3
____ _ ____ _ __
 72
65
 73
4
 40
2.0
 49
1.25
 49
-0.25
 49
0.25
 49
-0.25
  0
ENDTAB
  0
TABLE
  2
LAYER
 70
1
  0
LAYER
  2
PYDXF
 70
64
 62
7
  6
continuous
  0
ENDTAB
  0
TABLE
  2
STYLE
 70
1
  0
STYLE
  2
STANDARD
 70
0
 40
0
 41
1.0
 50
0.0
 71
0
 42
1
 3
ARIAL.TTF
 4

  0
ENDTAB
  0
TABLE
  2
VIEW
 70
1
  0
VIEW
  2
BF_TOPVIEW
 70
0
 40
120.0
 10
0.0
 20
0.0
 41
200.0
 11
0.0
 21
0.0
 31
1.0
 12
0.0
 22
0.0
 32
0.0
 42
50.0
 43
0.0
 44
0.0
 50
0.0
 71
0
  0
ENDTAB
  0
ENDSEC
  0
SECTION
  2
BLOCKS
  0
ENDSEC
  0
SECTION
  2
ENTITIES
  0
3DFACE
  8
0
 10
7.276457214544507e-09
 20
0.46957293152809143
 30
2.4172773361206055
 11
9.607902029529214e-09
 21
0.2880000174045563
 31
3.937422752380371
 12
0.253923237323761
 22
0.23299695551395416
 32
3.937422752380371
 13
0.3962244987487793
 23
0.3798924386501312
 33
2.4172773361206055
  0
3DFACE
  8
0
 10
0.6349509358406067
 20
0.14395415782928467
 30
2.448925733566284
 11
0.4617888927459717
 21
0.09853054583072662
 31
3.675475835800171
 12
0.6349152326583862
 22
-0.14394748210906982
 32
2.4491093158721924
 13
0.6349152326583862
 23
-0.14394748210906982
 33
2.4491093158721924
  0
3DFACE
  8
0
 10
0.4617888927459717
 20
0.09853054583072662
 30
3.675475835800171
 11
0.46860843896865845
 21
-3.125518560409546e-05
 31
3.6404027938842773
 12
0.6349152326583862
 22
-0.14394748210906982
 32
2.4491093158721924
 13
0.6349152326583862
 23
-0.14394748210906982
 33
2.4491093158721924
  0
3DFACE
  8
0
 10
0.46860843896865845
 20
-3.125518560409546e-05
 30
3.6404027938842773
 11
0.4620843529701233
 21
-0.0985858365893364
 31
3.6739563941955566
 12
0.6349152326583862
 22
-0.14394748210906982
 32
2.4491093158721924
 13
0.6349152326583862
 23
-0.14394748210906982
 33
2.4491093158721924
  0
3DFACE
  8
0
 10
0.4398355484008789
 20
-0.11655418574810028
 30
3.7883825302124023
 11
0.41664835810661316
 21
-0.09008103609085083
 31
3.907634735107422
 12
0.2539232075214386
 22
-0.2329968959093094
 32
3.937422752380371
 13
0.2539232075214386
 23
-0.2329968959093094
 33
3.937422752380371
  0
3DFACE
  8
0
 10
0.4620843529701233
 20
-0.0985858365893364
 30
3.6739563941955566
 11
0.4398355484008789
 21
-0.11655418574810028
 31
3.7883825302124023
 12
0.2539232075214386
 22
-0.2329968959093094
 32
3.937422752380371
 13
0.2539232075214386
 23
-0.2329968959093094
 33
3.937422752380371
  0
3DFACE
  8
0
 10
0.4620843529701233
 20
-0.0985858365893364
 30
3.6739563941955566
 11
0.2539232075214386
 21
-0.2329968959093094
 31
3.937422752380371
 12
0.39622437953948975
 22
-0.3798925280570984
 32
2.4172773361206055
 13
0.39622437953948975
 23
-0.3798925280570984
 33
2.4172773361206055
  0
3DFACE
  8
0
 10
0.6349152326583862
 20
-0.14394748210906982
 30
2.4491093158721924
 11
0.4620843529701233
 21
-0.0985858365893364
 31
3.6739563941955566
 12
0.39622437953948975
 22
-0.3798925280570984
 32
2.4172773361206055
 13
0.39622437953948975
 23
-0.3798925280570984
 33
2.4172773361206055
  0
3DFACE
  8
0
 10
0.39622437953948975
 20
-0.3798925280570984
 30
2.4172773361206055
 11
0.2539232075214386
 21
-0.2329968959093094
 31
3.937422752380371
 12
-2.8157955966889858e-08
 22
-0.2880000174045563
 32
3.937422752380371
 13
-5.165499317172362e-08
 23
-0.46957293152809143
 33
2.4172773361206055
  0
3DFACE
  8
0
 10
-5.165499317172362e-08
 20
-0.46957293152809143
 30
2.4172773361206055
 11
-2.8157955966889858e-08
 21
-0.2880000174045563
 31
3.937422752380371
 12
-0.2539232671260834
 22
-0.2329968959093094
 32
3.937422752380371
 13
-0.3962244689464569
 23
-0.3798924386501312
 33
2.4172773361206055
  0
3DFACE
  8
0
 10
-0.2539232671260834
 20
-0.2329968959093094
 30
3.937422752380371
 11
-0.4166328012943268
 21
-0.09007814526557922
 31
3.90771484375
 12
-0.4397302269935608
 22
-0.11761397123336792
 32
3.788924217224121
 13
-0.4397302269935608
 23
-0.11761397123336792
 33
3.788924217224121
  0
3DFACE
  8
0
 10
-0.2539232671260834
 20
-0.2329968959093094
 30
3.937422752380371
 11
-0.4397302269935608
 21
-0.11761397123336792
 31
3.788924217224121
 12
-0.4619466960430145
 22
-0.09856009483337402
 32
3.674664258956909
 13
-0.4619466960430145
 23
-0.09856009483337402
 33
3.674664258956909
  0
3DFACE
  8
0
 10
-0.3962244689464569
 20
-0.3798924386501312
 30
2.4172773361206055
 11
-0.2539232671260834
 21
-0.2329968959093094
 31
3.937422752380371
 12
-0.4619466960430145
 22
-0.09856009483337402
 32
3.674664258956909
 13
-0.4619466960430145
 23
-0.09856009483337402
 33
3.674664258956909
  0
3DFACE
  8
0
 10
-0.3962244689464569
 20
-0.3798924386501312
 30
2.4172773361206055
 11
-0.4619466960430145
 21
-0.09856009483337402
 31
3.674664258956909
 12
-0.6349318623542786
 22
-0.14395062625408173
 32
2.449023962020874
 13
-0.6349318623542786
 23
-0.14395062625408173
 33
2.449023962020874
  0
3DFACE
  8
0
 10
-0.6349318623542786
 20
-0.14395062625408173
 30
2.449023962020874
 11
-0.46206068992614746
 21
0.098581463098526
 31
3.6740782260894775
 12
-0.6349180936813354
 22
0.14394809305667877
 32
2.449094772338867
 13
-0.6349180936813354
 23
0.14394809305667877
 33
2.449094772338867
  0
3DFACE
  8
0
 10
-0.6349318623542786
 20
-0.14395062625408173
 30
2.449023962020874
 11
-0.46868425607681274
 21
1.2077391147613525e-05
 31
3.640012741088867
 12
-0.46206068992614746
 22
0.098581463098526
 32
3.6740782260894775
 13
-0.46206068992614746
 23
0.098581463098526
 33
3.6740782260894775
  0
3DFACE
  8
0
 10
-0.6349318623542786
 20
-0.14395062625408173
 30
2.449023962020874
 11
-0.4619466960430145
 21
-0.09856009483337402
 31
3.674664258956909
 12
-0.46868425607681274
 22
1.2077391147613525e-05
 32
3.640012741088867
 13
-0.46868425607681274
 23
1.2077391147613525e-05
 33
3.640012741088867
  0
3DFACE
  8
0
 10
9.607902029529214e-09
 20
0.2880000174045563
 30
3.937422752380371
 11
7.276457214544507e-09
 21
0.46957293152809143
 31
2.4172773361206055
 12
-0.3962242305278778
 22
0.3798925578594208
 32
2.4172773361206055
 13
-0.2539231479167938
 23
0.23299700021743774
 33
3.937422752380371
  0
3DFACE
  8
0
 10
-0.3962242305278778
 20
0.3798925578594208
 30
2.4172773361206055
 11
7.276457214544507e-09
 21
0.46957293152809143
 31
2.4172773361206055
 12
-2.2712914216072022e-08
 22
0.6674243807792664
 32
1.527793288230896
 13
-0.5649149417877197
 23
0.5399577617645264
 33
1.527793288230896
  0
3DFACE
  8
0
 10
0.41664835810661316
 20
-0.09008103609085083
 30
3.907634735107422
 11
0.21569962799549103
 21
-0.06674766540527344
 31
4.047709941864014
 12
0.13330967724323273
 22
-0.17474766075611115
 32
4.047709941864014
 13
0.2539232075214386
 23
-0.2329968959093094
 33
3.937422752380371
  0
3DFACE
  8
0
 10
0.46860843896865845
 20
-3.125518560409546e-05
 30
3.6404027938842773
 11
0.4617888927459717
 21
0.09853054583072662
 31
3.675475835800171
 12
0.895675003528595
 22
0.0997757762670517
 32
3.541261911392212
 13
0.8960389494895935
 23
-4.8404330300400034e-05
 33
3.466949224472046
  0
3DFACE
  8
0
 10
0.2539232075214386
 20
-0.2329968959093094
 30
3.937422752380371
 11
0.13330967724323273
 21
-0.17474766075611115
 31
4.047709941864014
 12
-1.0312581011362454e-08
 22
-0.2160000205039978
 32
4.047709941864014
 13
-2.8157955966889858e-08
 23
-0.2880000174045563
 33
3.937422752380371
  0
3DFACE
  8
0
 10
0.4398355484008789
 20
-0.11655418574810028
 30
3.7883825302124023
 11
0.4620843529701233
 21
-0.0985858365893364
 31
3.6739563941955566
 12
0.896402895450592
 22
-0.09983828663825989
 32
3.539543867111206
 13
0.8958017230033875
 23
-0.1555955410003662
 33
3.788316249847412
  0
3DFACE
  8
0
 10
-0.4108564555644989
 20
1.4901161193847656e-08
 30
3.937422752380371
 11
-0.41664567589759827
 21
0.09008058905601501
 31
3.9076485633850098
 12
-0.8951560854911804
 22
0.08899694681167603
 32
3.9039177894592285
 13
-0.8951560854911804
 23
3.1282647796615493e-06
 33
3.936811923980713
  0
3DFACE
  8
0
 10
0.4108564555644989
 20
7.450580596923828e-09
 30
3.937422752380371
 11
0.41664835810661316
 21
-0.09008103609085083
 31
3.907634735107422
 12
0.8952005505561829
 22
-0.08899689465761185
 32
3.9039177894592285
 13
0.8952005505561829
 23
3.115984782198211e-06
 33
3.936811923980713
  0
3DFACE
  8
0
 10
-0.46206068992614746
 20
0.098581463098526
 30
3.6740782260894775
 11
-0.46868425607681274
 21
1.2077391147613525e-05
 31
3.640012741088867
 12
-0.8961597084999084
 22
2.3007050913292915e-05
 32
3.4663660526275635
 13
-0.8963000774383545
 23
0.09983333945274353
 33
3.5396814346313477
  0
3DFACE
  8
0
 10
-0.4619466960430145
 20
-0.09856009483337402
 30
3.674664258956909
 11
-0.4397302269935608
 21
-0.11761397123336792
 31
3.788924217224121
 12
-0.895587682723999
 22
-0.1555715799331665
 32
3.7889180183410645
 13
-0.8960193395614624
 23
-0.0998091846704483
 33
3.540343999862671
  0
3DFACE
  8
0
 10
0.3962244987487793
 20
0.3798924386501312
 30
2.4172773361206055
 11
0.253923237323761
 21
0.23299695551395416
 31
3.937422752380371
 12
0.6349509358406067
 22
0.14395415782928467
 32
2.448925733566284
 13
0.6349509358406067
 23
0.14395415782928467
 33
2.448925733566284
  0
3DFACE
  8
0
 10
0.253923237323761
 20
0.23299695551395416
 30
3.937422752380371
 11
0.4617888927459717
 21
0.09853054583072662
 31
3.675475835800171
 12
0.6349509358406067
 22
0.14395415782928467
 32
2.448925733566284
 13
0.6349509358406067
 23
0.14395415782928467
 33
2.448925733566284
  0
3DFACE
  8
0
 10
0.253923237323761
 20
0.23299695551395416
 30
3.937422752380371
 11
0.43962934613227844
 21
0.11652293801307678
 31
3.789443016052246
 12
0.4617888927459717
 22
0.09853054583072662
 32
3.675475835800171
 13
0.4617888927459717
 23
0.09853054583072662
 33
3.675475835800171
  0
3DFACE
  8
0
 10
0.253923237323761
 20
0.23299695551395416
 30
3.937422752380371
 11
0.41661494970321655
 21
0.0900747999548912
 31
3.907806873321533
 12
0.43962934613227844
 22
0.11652293801307678
 32
3.789443016052246
 13
0.43962934613227844
 23
0.11652293801307678
 33
3.789443016052246
  0
3DFACE
  8
0
 10
-0.6349180936813354
 20
0.14394809305667877
 30
2.449094772338867
 11
-0.2539231479167938
 21
0.23299700021743774
 31
3.937422752380371
 12
-0.3962242305278778
 22
0.3798925578594208
 32
2.4172773361206055
 13
-0.3962242305278778
 23
0.3798925578594208
 33
2.4172773361206055
  0
3DFACE
  8
0
 10
-0.6349180936813354
 20
0.14394809305667877
 30
2.449094772338867
 11
-0.46206068992614746
 21
0.098581463098526
 31
3.6740782260894775
 12
-0.2539231479167938
 22
0.23299700021743774
 32
3.937422752380371
 13
-0.2539231479167938
 23
0.23299700021743774
 33
3.937422752380371
  0
3DFACE
  8
0
 10
-0.46206068992614746
 20
0.098581463098526
 30
3.6740782260894775
 11
-0.43981048464775085
 21
0.11762605607509613
 31
3.788511276245117
 12
-0.2539231479167938
 22
0.23299700021743774
 32
3.937422752380371
 13
-0.2539231479167938
 23
0.23299700021743774
 33
3.937422752380371
  0
3DFACE
  8
0
 10
-0.43981048464775085
 20
0.11762605607509613
 30
3.788511276245117
 11
-0.41664567589759827
 21
0.09008058905601501
 31
3.9076485633850098
 12
-0.2539231479167938
 22
0.23299700021743774
 32
3.937422752380371
 13
-0.2539231479167938
 23
0.23299700021743774
 33
3.937422752380371
  0
3DFACE
  8
0
 10
-0.41664567589759827
 20
0.09008058905601501
 30
3.9076485633850098
 11
-0.43981048464775085
 21
0.11762605607509613
 31
3.788511276245117
 12
-0.8957280516624451
 22
0.1555977314710617
 32
3.788419723510742
 13
-0.8951560854911804
 23
0.08899694681167603
 33
3.9039177894592285
  0
3DFACE
  8
0
 10
-0.2539232671260834
 20
-0.2329968959093094
 30
3.937422752380371
 11
-0.13330970704555511
 21
-0.17474766075611115
 31
4.047709941864014
 12
-0.21569962799549103
 22
-0.06674768030643463
 32
4.047709941864014
 13
-0.4166328012943268
 23
-0.09007814526557922
 33
3.90771484375
  0
3DFACE
  8
0
 10
-2.8157955966889858e-08
 20
-0.2880000174045563
 30
3.937422752380371
 11
-1.0312581011362454e-08
 21
-0.2160000205039978
 31
4.047709941864014
 12
-0.13330970704555511
 22
-0.17474766075611115
 32
4.047709941864014
 13
-0.2539232671260834
 23
-0.2329968959093094
 33
3.937422752380371
  0
3DFACE
  8
0
 10
0.4620843529701233
 20
-0.0985858365893364
 30
3.6739563941955566
 11
0.46860843896865845
 21
-3.125518560409546e-05
 31
3.6404027938842773
 12
0.8960389494895935
 22
-4.8404330300400034e-05
 32
3.466949224472046
 13
0.896402895450592
 23
-0.09983828663825989
 33
3.539543867111206
  0
3DFACE
  8
0
 10
0.41664835810661316
 20
-0.09008103609085083
 30
3.907634735107422
 11
0.4398355484008789
 21
-0.11655418574810028
 31
3.7883825302124023
 12
0.8958017230033875
 22
-0.1555955410003662
 32
3.788316249847412
 13
0.8952005505561829
 23
-0.08899689465761185
 33
3.9039177894592285
  0
3DFACE
  8
0
 10
0.4617888927459717
 20
0.09853054583072662
 30
3.675475835800171
 11
0.43962934613227844
 21
0.11652293801307678
 31
3.789443016052246
 12
0.8954377770423889
 22
0.1555502563714981
 32
3.789607524871826
 13
0.895675003528595
 23
0.0997757762670517
 33
3.541261911392212
  0
3DFACE
  8
0
 10
-0.43981048464775085
 20
0.11762605607509613
 30
3.788511276245117
 11
-0.46206068992614746
 21
0.098581463098526
 31
3.6740782260894775
 12
-0.8963000774383545
 22
0.09983333945274353
 32
3.5396814346313477
 13
-0.8957280516624451
 23
0.1555977314710617
 33
3.788419723510742
  0
3DFACE
  8
0
 10
-0.46868425607681274
 20
1.2077391147613525e-05
 30
3.640012741088867
 11
-0.4619466960430145
 21
-0.09856009483337402
 31
3.674664258956909
 12
-0.8960193395614624
 22
-0.0998091846704483
 32
3.540343999862671
 13
-0.8961597084999084
 23
2.3007050913292915e-05
 33
3.4663660526275635
  0
3DFACE
  8
0
 10
-0.4397302269935608
 20
-0.11761397123336792
 30
3.788924217224121
 11
-0.4166328012943268
 21
-0.09007814526557922
 31
3.90771484375
 12
-0.8951560854911804
 22
-0.08899691700935364
 32
3.9039177894592285
 13
-0.895587682723999
 23
-0.1555715799331665
 33
3.7889180183410645
  0
3DFACE
  8
0
 10
-0.4166328012943268
 20
-0.09007814526557922
 30
3.90771484375
 11
-0.4108564555644989
 21
1.4901161193847656e-08
 31
3.937422752380371
 12
-0.8951560854911804
 22
3.1282647796615493e-06
 32
3.936811923980713
 13
-0.8951560854911804
 23
-0.08899691700935364
 33
3.9039177894592285
  0
3DFACE
  8
0
 10
-0.43388381600379944
 20
-5.0512399818458675e-11
 30
4.088711261749268
 11
-0.7818315029144287
 21
-5.0512399818458675e-11
 31
4.338442325592041
 12
-0.5528383851051331
 22
0.4975544512271881
 32
4.338442325592041
 13
-0.3068022131919861
 23
0.2761218845844269
 33
4.088711261749268
  0
3DFACE
  8
0
 10
-0.3068022131919861
 20
0.2761218845844269
 30
4.088711261749268
 11
-0.5528383851051331
 21
0.4975544512271881
 31
4.338442325592041
 12
-9.556761426665616e-08
 22
0.7036482691764832
 32
4.338442325592041
 13
-1.1023251289543623e-07
 23
0.39049533009529114
 33
4.088711261749268
  0
3DFACE
  8
0
 10
-1.1023251289543623e-07
 20
0.39049533009529114
 30
4.088711261749268
 11
-9.556761426665616e-08
 21
0.7036482691764832
 31
4.338442325592041
 12
0.5528382062911987
 22
0.49755439162254333
 32
4.338442325592041
 13
0.306801974773407
 23
0.2761218547821045
 33
4.088711261749268
  0
3DFACE
  8
0
 10
0.306801974773407
 20
0.2761218547821045
 30
4.088711261749268
 11
0.5528382062911987
 21
0.49755439162254333
 31
4.338442325592041
 12
0.7818312644958496
 22
-1.2580021291341836e-07
 32
4.435884952545166
 13
0.43388351798057556
 23
-7.466964291324985e-08
 33
4.088711261749268
  0
3DFACE
  8
0
 10
0.43388351798057556
 20
-7.466964291324985e-08
 30
4.088711261749268
 11
0.7818312644958496
 21
-1.2580021291341836e-07
 31
4.435884952545166
 12
0.5528380274772644
 22
-0.49755463004112244
 32
4.338442325592041
 13
0.30680185556411743
 23
-0.27612194418907166
 33
4.088711261749268
  0
3DFACE
  8
0
 10
0.5528380274772644
 20
-0.49755463004112244
 30
4.338442325592041
 11
0.6893777847290039
 21
-0.6204404830932617
 31
4.699314594268799
 12
-4.22490586515778e-07
 22
-0.7774351239204407
 32
4.699314594268799
 13
-3.722053065757791e-07
 23
-0.7036483287811279
 33
4.338442325592041
  0
3DFACE
  8
0
 10
0.6893777847290039
 20
-0.6204404830932617
 30
4.699314594268799
 11
0.6893777847290039
 21
-0.6204404830932617
 31
5.099852085113525
 12
-4.22490586515778e-07
 22
-0.7774351239204407
 32
5.099852085113525
 13
-4.22490586515778e-07
 23
-0.7774351239204407
 33
4.699314594268799
  0
3DFACE
  8
0
 10
0.6893777847290039
 20
-0.6204404830932617
 30
5.099852085113525
 11
0.5528380274772644
 21
-0.49755463004112244
 31
5.460724353790283
 12
-3.722053065757791e-07
 22
-0.7036483287811279
 32
5.460724353790283
 13
-4.22490586515778e-07
 23
-0.7774351239204407
 33
5.099852085113525
  0
3DFACE
  8
0
 10
0.30680185556411743
 20
-0.27612194418907166
 30
4.088711261749268
 11
0.5528380274772644
 21
-0.49755463004112244
 31
4.338442325592041
 12
-3.722053065757791e-07
 22
-0.7036483287811279
 32
4.338442325592041
 13
-2.7324671236783615e-07
 23
-0.39049533009529114
 33
4.088711261749268
  0
3DFACE
  8
0
 10
-3.722053065757791e-07
 20
-0.7036483287811279
 30
4.338442325592041
 11
-4.22490586515778e-07
 21
-0.7774351239204407
 31
4.699314594268799
 12
-0.6893784999847412
 22
-0.6204401254653931
 32
4.699314594268799
 13
-0.5528386831283569
 23
-0.49755436182022095
 33
4.338442325592041
  0
3DFACE
  8
0
 10
-4.22490586515778e-07
 20
-0.7774351239204407
 30
4.699314594268799
 11
-4.22490586515778e-07
 21
-0.7774351239204407
 31
5.099852085113525
 12
-0.6893784999847412
 22
-0.6204401254653931
 32
5.099852085113525
 13
-0.6893784999847412
 23
-0.6204401254653931
 33
4.699314594268799
  0
3DFACE
  8
0
 10
-4.22490586515778e-07
 20
-0.7774351239204407
 30
5.099852085113525
 11
-3.722053065757791e-07
 21
-0.7036483287811279
 31
5.460724353790283
 12
-0.5528386831283569
 22
-0.49755436182022095
 32
5.460724353790283
 13
-0.6893784999847412
 23
-0.6204401254653931
 33
5.099852085113525
  0
3DFACE
  8
0
 10
-2.7324671236783615e-07
 20
-0.39049533009529114
 30
4.088711261749268
 11
-3.722053065757791e-07
 21
-0.7036483287811279
 31
4.338442325592041
 12
-0.5528386831283569
 22
-0.49755436182022095
 32
4.338442325592041
 13
-0.30680233240127563
 23
-0.2761218249797821
 33
4.088711261749268
  0
3DFACE
  8
0
 10
-0.30680233240127563
 20
-0.2761218249797821
 30
4.088711261749268
 11
-0.5528386831283569
 21
-0.49755436182022095
 31
4.338442325592041
 12
-0.7818315029144287
 22
-5.0512399818458675e-11
 32
4.338442325592041
 13
-0.43388381600379944
 23
-5.0512399818458675e-11
 33
4.088711261749268
  0
3DFACE
  8
0
 10
-4.8062005930660234e-08
 20
0.213792622089386
 30
4.049126148223877
 11
-1.1023251289543623e-07
 21
0.39049533009529114
 31
4.088711261749268
 12
0.306801974773407
 22
0.2761218547821045
 32
4.088711261749268
 13
0.13330963253974915
 23
0.15727294981479645
 33
4.049126148223877
  0
3DFACE
  8
0
 10
-1.1023251289543623e-07
 20
0.39049533009529114
 30
4.088711261749268
 11
-4.8062005930660234e-08
 21
0.213792622089386
 31
4.049126148223877
 12
-0.1333097219467163
 22
0.15727297961711884
 32
4.049126148223877
 13
-0.3068022131919861
 23
0.2761218845844269
 33
4.088711261749268
  0
3DFACE
  8
0
 10
0.13330963253974915
 20
0.15727294981479645
 30
4.049126148223877
 11
0.306801974773407
 21
0.2761218547821045
 31
4.088711261749268
 12
0.43388351798057556
 22
-7.466964291324985e-08
 32
4.088711261749268
 13
0.21569956839084625
 23
0.06007291376590729
 33
4.049126148223877
  0
3DFACE
  8
0
 10
-0.3068022131919861
 20
0.2761218845844269
 30
4.088711261749268
 11
-0.1333097219467163
 21
0.15727297961711884
 31
4.049126148223877
 12
-0.2156996876001358
 22
0.06007293984293938
 32
4.049126148223877
 13
-0.43388381600379944
 23
-5.0512399818458675e-11
 33
4.088711261749268
  0
3DFACE
  8
0
 10
-1.122775673866272
 20
-7.648388589132082e-08
 30
4.167823314666748
 11
-0.8347317576408386
 21
-0.6583076119422913
 31
4.300852298736572
 12
-0.8044820427894592
 22
-0.7240339517593384
 32
5.449645519256592
 13
-1.1377094984054565
 23
-7.98317643102564e-08
 33
5.449645519256592
  0
3DFACE
  8
0
 10
-1.1377094984054565
 20
-7.98317643102564e-08
 30
5.449645519256592
 11
-0.8044820427894592
 21
-0.7240339517593384
 31
5.449645519256592
 12
-0.645144522190094
 22
-0.5806301832199097
 32
5.9175639152526855
 13
-0.9123721122741699
 23
-7.98317643102564e-08
 33
5.9175639152526855
  0
3DFACE
  8
0
 10
-0.9123721122741699
 20
-7.98317643102564e-08
 30
5.9175639152526855
 11
-0.645144522190094
 21
-0.5806301832199097
 31
5.9175639152526855
 12
-0.35802823305130005
 22
-0.3222253918647766
 32
6.241372585296631
 13
-0.5063283443450928
 23
-7.98317643102564e-08
 33
6.241372585296631
  0
3DFACE
  8
0
 10
-0.8044820427894592
 20
-0.7240339517593384
 30
5.449645519256592
 11
-0.08859775215387344
 21
-0.9909098744392395
 31
5.449645519256592
 12
-7.987679850884888e-08
 22
-0.8211350440979004
 32
5.9175639152526855
 13
-0.645144522190094
 23
-0.5806301832199097
 33
5.9175639152526855
  0
3DFACE
  8
0
 10
-0.645144522190094
 20
-0.5806301832199097
 30
5.9175639152526855
 11
-7.987679850884888e-08
 21
-0.8211350440979004
 31
5.9175639152526855
 12
-9.699026293219504e-08
 22
-0.4556954503059387
 32
6.241372585296631
 13
-0.35802823305130005
 23
-0.3222253918647766
 33
6.241372585296631
  0
3DFACE
  8
0
 10
0.2878091335296631
 20
-0.9166454672813416
 30
5.449645519256592
 11
0.5528380274772644
 21
-0.49755463004112244
 31
5.460724353790283
 12
0.8044819235801697
 22
-0.7240338325500488
 32
5.449645519256592
 13
0.8044819235801697
 23
-0.7240338325500488
 33
5.449645519256592
  0
3DFACE
  8
0
 10
0.2878091335296631
 20
-0.9166454672813416
 30
5.449645519256592
 11
-0.08859775215387344
 21
-0.9909098744392395
 31
5.449645519256592
 12
0.5528380274772644
 22
-0.49755463004112244
 32
5.460724353790283
 13
0.5528380274772644
 23
-0.49755463004112244
 33
5.460724353790283
  0
3DFACE
  8
0
 10
-0.08859775215387344
 20
-0.9909098744392395
 30
5.449645519256592
 11
-3.722053065757791e-07
 21
-0.7036483287811279
 31
5.460724353790283
 12
0.5528380274772644
 22
-0.49755463004112244
 32
5.460724353790283
 13
0.5528380274772644
 23
-0.49755463004112244
 33
5.460724353790283
  0
3DFACE
  8
0
 10
-7.987679850884888e-08
 20
-0.8211350440979004
 30
5.9175639152526855
 11
0.6451444029808044
 21
-0.5806300044059753
 31
5.9175639152526855
 12
0.3580280542373657
 22
-0.32222530245780945
 32
6.241372585296631
 13
-9.699026293219504e-08
 23
-0.4556954503059387
 33
6.241372585296631
  0
3DFACE
  8
0
 10
0.8347316384315491
 20
-0.6583074927330017
 30
4.300852298736572
 11
1.137709140777588
 21
1.197272183617315e-07
 31
4.214453220367432
 12
1.137709140777588
 22
1.197272183617315e-07
 32
5.449645519256592
 13
0.8044819235801697
 23
-0.7240338325500488
 33
5.449645519256592
  0
3DFACE
  8
0
 10
0.8044819235801697
 20
-0.7240338325500488
 30
5.449645519256592
 11
1.137709140777588
 21
1.197272183617315e-07
 31
5.449645519256592
 12
0.9123718738555908
 22
6.691409026871042e-08
 32
5.9175639152526855
 13
0.6451444029808044
 23
-0.5806300044059753
 33
5.9175639152526855
  0
3DFACE
  8
0
 10
0.6451444029808044
 20
-0.5806300044059753
 30
5.9175639152526855
 11
0.9123718738555908
 21
6.691409026871042e-08
 31
5.9175639152526855
 12
0.5063281059265137
 22
7.2463492983843025e-09
 32
6.241372585296631
 13
0.3580280542373657
 23
-0.32222530245780945
 33
6.241372585296631
  0
3DFACE
  8
0
 10
1.137709140777588
 20
1.197272183617315e-07
 30
4.214453220367432
 11
0.8044816851615906
 21
0.7240338921546936
 31
4.02773904800415
 12
0.8044816851615906
 22
0.7240338921546936
 32
5.449645519256592
 13
1.137709140777588
 23
1.197272183617315e-07
 33
5.449645519256592
  0
3DFACE
  8
0
 10
1.137709140777588
 20
1.197272183617315e-07
 30
5.449645519256592
 11
0.8044816851615906
 21
0.7240338921546936
 31
5.449645519256592
 12
0.6451441645622253
 22
0.5806300640106201
 32
5.9175639152526855
 13
0.9123718738555908
 23
6.691409026871042e-08
 33
5.9175639152526855
  0
3DFACE
  8
0
 10
0.9123718738555908
 20
6.691409026871042e-08
 30
5.9175639152526855
 11
0.6451441645622253
 21
0.5806300640106201
 31
5.9175639152526855
 12
0.3580279052257538
 22
0.32222530245780945
 32
6.241372585296631
 13
0.5063281059265137
 23
7.2463492983843025e-09
 33
6.241372585296631
  0
3DFACE
  8
0
 10
0.8044816851615906
 20
0.7240338921546936
 30
4.02773904800415
 11
-4.613853548107727e-07
 21
1.0239384174346924
 31
4.2152533531188965
 12
-4.613853548107727e-07
 22
1.0239384174346924
 32
5.449645519256592
 13
0.8044816851615906
 23
0.7240338921546936
 33
5.449645519256592
  0
3DFACE
  8
0
 10
0.8044816851615906
 20
0.7240338921546936
 30
5.449645519256592
 11
-4.613853548107727e-07
 21
1.0239384174346924
 31
5.449645519256592
 12
-4.0270407453135704e-07
 22
0.8211346864700317
 32
5.9175639152526855
 13
0.6451441645622253
 23
0.5806300640106201
 33
5.9175639152526855
  0
3DFACE
  8
0
 10
0.6451441645622253
 20
0.5806300640106201
 30
5.9175639152526855
 11
-4.0270407453135704e-07
 21
0.8211346864700317
 31
5.9175639152526855
 12
-2.872225763894676e-07
 22
0.45569542050361633
 32
6.241372585296631
 13
0.3580279052257538
 23
0.32222530245780945
 33
6.241372585296631
  0
3DFACE
  8
0
 10
-4.613853548107727e-07
 20
1.0239384174346924
 30
4.2152533531188965
 11
-0.8044824600219727
 21
0.7240334749221802
 31
4.02773904800415
 12
-0.8044824600219727
 22
0.7240334749221802
 32
5.449645519256592
 13
-4.613853548107727e-07
 23
1.0239384174346924
 33
5.449645519256592
  0
3DFACE
  8
0
 10
-4.613853548107727e-07
 20
1.0239384174346924
 30
5.449645519256592
 11
-0.8044824600219727
 21
0.7240334749221802
 31
5.449645519256592
 12
-0.6451448798179626
 22
0.5806297063827515
 32
5.9175639152526855
 13
-4.0270407453135704e-07
 23
0.8211346864700317
 33
5.9175639152526855
  0
3DFACE
  8
0
 10
-4.0270407453135704e-07
 20
0.8211346864700317
 30
5.9175639152526855
 11
-0.6451448798179626
 21
0.5806297063827515
 31
5.9175639152526855
 12
-0.3580284118652344
 22
0.3222252130508423
 32
6.241372585296631
 13
-2.872225763894676e-07
 23
0.45569542050361633
 33
6.241372585296631
  0
3DFACE
  8
0
 10
-0.5063283443450928
 20
-7.98317643102564e-08
 30
6.241372585296631
 11
-0.35802823305130005
 21
-0.3222253918647766
 31
6.241372585296631
 12
-2.6915705575447646e-07
 22
3.230582024116302e-08
 32
6.35693883895874
 13
-2.6915705575447646e-07
 23
3.230582024116302e-08
 33
6.35693883895874
  0
3DFACE
  8
0
 10
-0.35802823305130005
 20
-0.3222253918647766
 30
6.241372585296631
 11
-9.699026293219504e-08
 21
-0.4556954503059387
 31
6.241372585296631
 12
-2.6915705575447646e-07
 22
3.230582024116302e-08
 32
6.35693883895874
 13
-2.6915705575447646e-07
 23
3.230582024116302e-08
 33
6.35693883895874
  0
3DFACE
  8
0
 10
-9.699026293219504e-08
 20
-0.4556954503059387
 30
6.241372585296631
 11
0.3580280542373657
 21
-0.32222530245780945
 31
6.241372585296631
 12
-2.6915705575447646e-07
 22
3.230582024116302e-08
 32
6.35693883895874
 13
-2.6915705575447646e-07
 23
3.230582024116302e-08
 33
6.35693883895874
  0
3DFACE
  8
0
 10
0.3580280542373657
 20
-0.32222530245780945
 30
6.241372585296631
 11
0.5063281059265137
 21
7.2463492983843025e-09
 31
6.241372585296631
 12
-2.6915705575447646e-07
 22
3.230582024116302e-08
 32
6.35693883895874
 13
-2.6915705575447646e-07
 23
3.230582024116302e-08
 33
6.35693883895874
  0
3DFACE
  8
0
 10
0.5063281059265137
 20
7.2463492983843025e-09
 30
6.241372585296631
 11
0.3580279052257538
 21
0.32222530245780945
 31
6.241372585296631
 12
-2.6915705575447646e-07
 22
3.230582024116302e-08
 32
6.35693883895874
 13
-2.6915705575447646e-07
 23
3.230582024116302e-08
 33
6.35693883895874
  0
3DFACE
  8
0
 10
0.3580279052257538
 20
0.32222530245780945
 30
6.241372585296631
 11
-2.872225763894676e-07
 21
0.45569542050361633
 31
6.241372585296631
 12
-2.6915705575447646e-07
 22
3.230582024116302e-08
 32
6.35693883895874
 13
-2.6915705575447646e-07
 23
3.230582024116302e-08
 33
6.35693883895874
  0
3DFACE
  8
0
 10
-2.872225763894676e-07
 20
0.45569542050361633
 30
6.241372585296631
 11
-0.3580284118652344
 21
0.3222252130508423
 31
6.241372585296631
 12
-2.6915705575447646e-07
 22
3.230582024116302e-08
 32
6.35693883895874
 13
-2.6915705575447646e-07
 23
3.230582024116302e-08
 33
6.35693883895874
  0
3DFACE
  8
0
 10
-0.8044824600219727
 20
0.7240334749221802
 30
4.02773904800415
 11
-1.122775673866272
 21
-7.648388589132082e-08
 31
4.167823314666748
 12
-1.1377094984054565
 22
-7.98317643102564e-08
 32
5.449645519256592
 13
-0.8044824600219727
 23
0.7240334749221802
 33
5.449645519256592
  0
3DFACE
  8
0
 10
-0.8044824600219727
 20
0.7240334749221802
 30
5.449645519256592
 11
-1.1377094984054565
 21
-7.98317643102564e-08
 31
5.449645519256592
 12
-0.9123721122741699
 22
-7.98317643102564e-08
 32
5.9175639152526855
 13
-0.6451448798179626
 23
0.5806297063827515
 33
5.9175639152526855
  0
3DFACE
  8
0
 10
-0.6451448798179626
 20
0.5806297063827515
 30
5.9175639152526855
 11
-0.9123721122741699
 21
-7.98317643102564e-08
 31
5.9175639152526855
 12
-0.5063283443450928
 22
-7.98317643102564e-08
 32
6.241372585296631
 13
-0.3580284118652344
 23
0.3222252130508423
 33
6.241372585296631
  0
3DFACE
  8
0
 10
-0.3580284118652344
 20
0.3222252130508423
 30
6.241372585296631
 11
-0.5063283443450928
 21
-7.98317643102564e-08
 31
6.241372585296631
 12
-2.6915705575447646e-07
 22
3.230582024116302e-08
 32
6.35693883895874
 13
-2.6915705575447646e-07
 23
3.230582024116302e-08
 33
6.35693883895874
  0
3DFACE
  8
0
 10
-0.8044820427894592
 20
-0.7240339517593384
 30
5.449645519256592
 11
0.09999997913837433
 21
-1.0239384174346924
 31
5.1496453285217285
 12
-0.08859775215387344
 22
-0.9909098744392395
 32
5.449645519256592
 13
-0.08859775215387344
 23
-0.9909098744392395
 33
5.449645519256592
  0
3DFACE
  8
0
 10
-0.5528386831283569
 20
-0.49755436182022095
 30
5.460724353790283
 11
-0.8044820427894592
 21
-0.7240339517593384
 31
5.449645519256592
 12
-0.6893784999847412
 22
-0.6204401254653931
 32
5.099852085113525
 13
-0.6893784999847412
 23
-0.6204401254653931
 33
5.099852085113525
  0
3DFACE
  8
0
 10
-0.8044820427894592
 20
-0.7240339517593384
 30
5.449645519256592
 11
-0.8347317576408386
 21
-0.6583076119422913
 31
4.300852298736572
 12
-0.6893784999847412
 22
-0.6204401254653931
 32
5.099852085113525
 13
-0.6893784999847412
 23
-0.6204401254653931
 33
5.099852085113525
  0
3DFACE
  8
0
 10
-0.8347317576408386
 20
-0.6583076119422913
 30
4.300852298736572
 11
-0.6893784999847412
 21
-0.6204401254653931
 31
4.699314594268799
 12
-0.6893784999847412
 22
-0.6204401254653931
 32
5.099852085113525
 13
-0.6893784999847412
 23
-0.6204401254653931
 33
5.099852085113525
  0
3DFACE
  8
0
 10
-0.8347317576408386
 20
-0.6583076119422913
 30
4.300852298736572
 11
-0.5528386831283569
 21
-0.49755436182022095
 31
4.338442325592041
 12
-0.6893784999847412
 22
-0.6204401254653931
 32
4.699314594268799
 13
-0.6893784999847412
 23
-0.6204401254653931
 33
4.699314594268799
  0
3DFACE
  8
0
 10
0.5528380274772644
 20
-0.49755463004112244
 30
5.460724353790283
 11
0.6893777847290039
 21
-0.6204404830932617
 31
5.099852085113525
 12
0.8044819235801697
 22
-0.7240338325500488
 32
5.449645519256592
 13
0.8044819235801697
 23
-0.7240338325500488
 33
5.449645519256592
  0
3DFACE
  8
0
 10
0.6893777847290039
 20
-0.6204404830932617
 30
5.099852085113525
 11
0.8347316384315491
 21
-0.6583074927330017
 31
4.300852298736572
 12
0.8044819235801697
 22
-0.7240338325500488
 32
5.449645519256592
 13
0.8044819235801697
 23
-0.7240338325500488
 33
5.449645519256592
  0
3DFACE
  8
0
 10
0.6893777847290039
 20
-0.6204404830932617
 30
5.099852085113525
 11
0.6893777847290039
 21
-0.6204404830932617
 31
4.699314594268799
 12
0.8347316384315491
 22
-0.6583074927330017
 32
4.300852298736572
 13
0.8347316384315491
 23
-0.6583074927330017
 33
4.300852298736572
  0
3DFACE
  8
0
 10
0.6893777847290039
 20
-0.6204404830932617
 30
4.699314594268799
 11
0.5528380274772644
 21
-0.49755463004112244
 31
4.338442325592041
 12
0.8347316384315491
 22
-0.6583074927330017
 32
4.300852298736572
 13
0.8347316384315491
 23
-0.6583074927330017
 33
4.300852298736572
  0
3DFACE
  8
0
 10
-0.8347317576408386
 20
-0.6583076119422913
 30
4.300852298736572
 11
-1.122775673866272
 21
-7.648388589132082e-08
 31
4.167823314666748
 12
-0.8044820427894592
 22
-0.7240339517593384
 32
4.047128200531006
 13
-0.8044820427894592
 23
-0.7240339517593384
 33
4.047128200531006
  0
3DFACE
  8
0
 10
0.8347316384315491
 20
-0.6583074927330017
 30
4.300852298736572
 11
0.8044819235801697
 21
-0.7240338325500488
 31
4.047128200531006
 12
1.137709140777588
 22
1.197272183617315e-07
 32
4.214453220367432
 13
1.137709140777588
 23
1.197272183617315e-07
 33
4.214453220367432
  0
3DFACE
  8
0
 10
-0.8044824600219727
 20
0.7240334749221802
 30
4.02773904800415
 11
-1.0712673664093018
 21
-0.2000001072883606
 31
3.9560818672180176
 12
-1.122775673866272
 22
-7.648388589132082e-08
 32
4.167823314666748
 13
-1.122775673866272
 23
-7.648388589132082e-08
 33
4.167823314666748
  0
3DFACE
  8
0
 10
1.137709140777588
 20
1.197272183617315e-07
 30
4.214453220367432
 11
1.0712671279907227
 21
-0.19999989867210388
 31
3.9560818672180176
 12
0.8044816851615906
 22
0.7240338921546936
 32
4.02773904800415
 13
0.8044816851615906
 23
0.7240338921546936
 33
4.02773904800415
  0
3DFACE
  8
0
 10
-0.8347317576408386
 20
-0.6583076119422913
 30
4.300852298736572
 11
-0.8044820427894592
 21
-0.7240339517593384
 31
4.047128200531006
 12
-0.5528386831283569
 22
-0.49755436182022095
 32
4.338442325592041
 13
-0.5528386831283569
 23
-0.49755436182022095
 33
4.338442325592041
  0
3DFACE
  8
0
 10
0.5528380274772644
 20
-0.49755463004112244
 30
4.338442325592041
 11
0.7818312644958496
 21
-1.2580021291341836e-07
 31
4.435884952545166
 12
1.137709140777588
 22
1.197272183617315e-07
 32
4.214453220367432
 13
0.8044819235801697
 23
-0.7240338325500488
 33
4.047128200531006
  0
3DFACE
  8
0
 10
0.8347316384315491
 20
-0.6583074927330017
 30
4.300852298736572
 11
0.5528380274772644
 21
-0.49755463004112244
 31
4.338442325592041
 12
0.8044819235801697
 22
-0.7240338325500488
 32
4.047128200531006
 13
0.8044819235801697
 23
-0.7240338325500488
 33
4.047128200531006
  0
3DFACE
  8
0
 10
0.2878091335296631
 20
-0.9166454672813416
 30
5.449645519256592
 11
-0.08859775215387344
 21
-0.9909098744392395
 31
5.449645519256592
 12
0.3417733311653137
 22
-0.9965280294418335
 32
5.249645709991455
 13
0.3417733311653137
 23
-0.9965280294418335
 33
5.249645709991455
  0
3DFACE
  8
0
 10
0.7818312644958496
 20
-1.2580021291341836e-07
 30
4.435884952545166
 11
0.5528382062911987
 21
0.49755439162254333
 31
4.338442325592041
 12
0.8044816851615906
 22
0.7240338921546936
 32
4.02773904800415
 13
1.0712671279907227
 23
-0.19999989867210388
 33
3.9560818672180176
  0
3DFACE
  8
0
 10
0.5528382062911987
 20
0.49755439162254333
 30
4.338442325592041
 11
-9.556761426665616e-08
 21
0.7036482691764832
 31
4.338442325592041
 12
-4.613853548107727e-07
 22
1.0239384174346924
 32
4.2152533531188965
 13
0.8044816851615906
 23
0.7240338921546936
 33
4.02773904800415
  0
3DFACE
  8
0
 10
-9.556761426665616e-08
 20
0.7036482691764832
 30
4.338442325592041
 11
-0.5528383851051331
 21
0.4975544512271881
 31
4.338442325592041
 12
-0.8044824600219727
 22
0.7240334749221802
 32
4.02773904800415
 13
-4.613853548107727e-07
 23
1.0239384174346924
 33
4.2152533531188965
  0
3DFACE
  8
0
 10
-0.7818315029144287
 20
-5.0512399818458675e-11
 30
4.338442325592041
 11
-1.0712673664093018
 21
-0.2000001072883606
 31
3.9560818672180176
 12
-0.8044824600219727
 22
0.7240334749221802
 32
4.02773904800415
 13
-0.5528383851051331
 23
0.4975544512271881
 33
4.338442325592041
  0
3DFACE
  8
0
 10
-0.5528386831283569
 20
-0.49755436182022095
 30
4.338442325592041
 11
-0.8044820427894592
 21
-0.7240339517593384
 31
4.047128200531006
 12
-1.122775673866272
 22
-7.648388589132082e-08
 32
4.167823314666748
 13
-0.7818315029144287
 23
-5.0512399818458675e-11
 33
4.338442325592041
  0
3DFACE
  8
0
 10
-1.122775673866272
 20
-7.648388589132082e-08
 30
4.167823314666748
 11
-1.0712673664093018
 21
-0.2000001072883606
 31
3.9560818672180176
 12
-0.7818315029144287
 22
-5.0512399818458675e-11
 32
4.338442325592041
 13
-0.7818315029144287
 23
-5.0512399818458675e-11
 33
4.338442325592041
  0
3DFACE
  8
0
 10
1.137709140777588
 20
1.197272183617315e-07
 30
4.214453220367432
 11
0.7818312644958496
 21
-1.2580021291341836e-07
 31
4.435884952545166
 12
1.0712671279907227
 22
-0.19999989867210388
 32
3.9560818672180176
 13
1.0712671279907227
 23
-0.19999989867210388
 33
3.9560818672180176
  0
3DFACE
  8
0
 10
-7.987679850884888e-08
 20
-0.8211350440979004
 30
5.9175639152526855
 11
-0.08859775215387344
 21
-0.9909098744392395
 31
5.449645519256592
 12
0.2878091335296631
 22
-0.9166454672813416
 32
5.449645519256592
 13
0.6451444029808044
 23
-0.5806300044059753
 33
5.9175639152526855
  0
3DFACE
  8
0
 10
0.6451444029808044
 20
-0.5806300044059753
 30
5.9175639152526855
 11
0.2878091335296631
 21
-0.9166454672813416
 31
5.449645519256592
 12
0.8044819235801697
 22
-0.7240338325500488
 32
5.449645519256592
 13
0.8044819235801697
 23
-0.7240338325500488
 33
5.449645519256592
  0
3DFACE
  8
0
 10
-0.08859775215387344
 20
-0.9909098744392395
 30
5.449645519256592
 11
-0.8044820427894592
 21
-0.7240339517593384
 31
5.449645519256592
 12
-0.5528386831283569
 22
-0.49755436182022095
 32
5.460724353790283
 13
-3.722053065757791e-07
 23
-0.7036483287811279
 33
5.460724353790283
  0
3DFACE
  8
0
 10
0.39622437953948975
 20
-0.3798925280570984
 30
2.4172773361206055
 11
-5.165499317172362e-08
 21
-0.46957293152809143
 31
2.4172773361206055
 12
-1.0673404915451101e-07
 22
-0.6674243807792664
 32
1.527793288230896
 13
0.5649150609970093
 23
-0.5399576425552368
 33
1.527793288230896
  0
3DFACE
  8
0
 10
-0.6349318623542786
 20
-0.14395062625408173
 30
2.449023962020874
 11
-0.6349180936813354
 21
0.14394809305667877
 31
2.449094772338867
 12
-0.9140520095825195
 22
0.206245556473732
 32
1.527793288230896
 13
-0.9140520095825195
 23
-0.2062455415725708
 33
1.527793288230896
  0
3DFACE
  8
0
 10
0.6349509358406067
 20
0.14395415782928467
 30
2.448925733566284
 11
0.6349152326583862
 21
-0.14394748210906982
 31
2.4491093158721924
 12
0.91405189037323
 22
-0.20624549686908722
 32
1.527793288230896
 13
0.91405189037323
 23
0.20624543726444244
 33
1.527793288230896
  0
3DFACE
  8
0
 10
-5.165499317172362e-08
 20
-0.46957293152809143
 30
2.4172773361206055
 11
-0.3962244689464569
 21
-0.3798924386501312
 31
2.4172773361206055
 12
-0.5649152994155884
 22
-0.5399576425552368
 32
1.527793288230896
 13
-1.0673404915451101e-07
 23
-0.6674243807792664
 33
1.527793288230896
  0
3DFACE
  8
0
 10
-0.6349180936813354
 20
0.14394809305667877
 30
2.449094772338867
 11
-0.3962242305278778
 21
0.3798925578594208
 31
2.4172773361206055
 12
-0.5649149417877197
 22
0.5399577617645264
 32
1.527793288230896
 13
-0.9140520095825195
 23
0.206245556473732
 33
1.527793288230896
  0
3DFACE
  8
0
 10
0.6349152326583862
 20
-0.14394748210906982
 30
2.4491093158721924
 11
0.39622437953948975
 21
-0.3798925280570984
 31
2.4172773361206055
 12
0.5649150609970093
 22
-0.5399576425552368
 32
1.527793288230896
 13
0.91405189037323
 23
-0.20624549686908722
 33
1.527793288230896
  0
3DFACE
  8
0
 10
7.276457214544507e-09
 20
0.46957293152809143
 30
2.4172773361206055
 11
0.3962244987487793
 21
0.3798924386501312
 31
2.4172773361206055
 12
0.5649151802062988
 22
0.5399576425552368
 32
1.527793288230896
 13
-2.2712914216072022e-08
 23
0.6674243807792664
 33
1.527793288230896
  0
3DFACE
  8
0
 10
-0.3962244689464569
 20
-0.3798924386501312
 30
2.4172773361206055
 11
-0.6349318623542786
 21
-0.14395062625408173
 31
2.449023962020874
 12
-0.9140520095825195
 22
-0.2062455415725708
 32
1.527793288230896
 13
-0.5649152994155884
 23
-0.5399576425552368
 33
1.527793288230896
  0
3DFACE
  8
0
 10
0.3962244987487793
 20
0.3798924386501312
 30
2.4172773361206055
 11
0.6349509358406067
 21
0.14395415782928467
 31
2.448925733566284
 12
0.91405189037323
 22
0.20624543726444244
 32
1.527793288230896
 13
0.5649151802062988
 23
0.5399576425552368
 33
1.527793288230896
  0
3DFACE
  8
0
 10
-0.8957280516624451
 20
0.1555977314710617
 30
3.788419723510742
 11
-0.8963000774383545
 21
0.09983333945274353
 31
3.5396814346313477
 12
-0.8963000774383545
 22
0.06793621927499771
 32
3.7125015258789062
 13
-0.8957280516624451
 23
0.10588452965021133
 33
3.8137195110321045
  0
3DFACE
  8
0
 10
0.895675003528595
 20
0.0997757762670517
 30
3.541261911392212
 11
0.8954377770423889
 21
0.1555502563714981
 31
3.789607524871826
 12
0.8954377770423889
 22
0.10585222393274307
 32
3.814527750015259
 13
0.895675003528595
 23
0.06789704412221909
 33
3.7135767936706543
  0
3DFACE
  8
0
 10
0.8960389494895935
 20
-4.8404330300400034e-05
 30
3.466949224472046
 11
0.895675003528595
 21
0.0997757762670517
 31
3.541261911392212
 12
0.895675003528595
 22
0.06789704412221909
 32
3.7135767936706543
 13
0.8960389494895935
 23
-3.446908522164449e-05
 33
3.66300630569458
  0
3DFACE
  8
0
 10
-0.8963000774383545
 20
0.09983333945274353
 30
3.5396814346313477
 11
-0.8961597084999084
 21
2.3007050913292915e-05
 31
3.4663660526275635
 12
-0.8961597084999084
 22
1.4127188478596509e-05
 32
3.662609577178955
 13
-0.8963000774383545
 23
0.06793621927499771
 33
3.7125015258789062
  0
3DFACE
  8
0
 10
-0.8961597084999084
 20
2.3007050913292915e-05
 30
3.4663660526275635
 11
-0.8960193395614624
 21
-0.0998091846704483
 31
3.540343999862671
 12
-0.8960193395614624
 22
-0.06792283803224564
 32
3.7129523754119873
 13
-0.8961597084999084
 23
1.4127188478596509e-05
 33
3.662609577178955
  0
3DFACE
  8
0
 10
0.8958017230033875
 20
-0.1555955410003662
 30
3.788316249847412
 11
0.896402895450592
 21
-0.09983828663825989
 31
3.539543867111206
 12
0.896402895450592
 22
-0.06794264167547226
 32
3.7124078273773193
 13
0.8958017230033875
 23
-0.10588609427213669
 33
3.8136489391326904
  0
3DFACE
  8
0
 10
0.896402895450592
 20
-0.09983828663825989
 30
3.539543867111206
 11
0.8960389494895935
 21
-4.8404330300400034e-05
 31
3.466949224472046
 12
0.8960389494895935
 22
-3.446908522164449e-05
 32
3.66300630569458
 13
0.896402895450592
 23
-0.06794264167547226
 33
3.7124078273773193
  0
3DFACE
  8
0
 10
-0.8960193395614624
 20
-0.0998091846704483
 30
3.540343999862671
 11
-0.895587682723999
 21
-0.1555715799331665
 31
3.7889180183410645
 12
-0.895587682723999
 22
-0.10586979240179062
 32
3.814058542251587
 13
-0.8960193395614624
 23
-0.06792283803224564
 33
3.7129523754119873
  0
3DFACE
  8
0
 10
-1.4560225009918213
 20
3.1282647796615493e-06
 30
3.936811923980713
 11
-1.4560225009918213
 21
0.08672265708446503
 31
3.9123878479003906
 12
-2.116888999938965
 22
0.08672265708446503
 32
3.9123878479003906
 13
-2.116888999938965
 23
3.1282647796615493e-06
 33
3.936811923980713
  0
3DFACE
  8
0
 10
-1.4570807218551636
 20
0.10588452965021133
 30
3.8137195110321045
 11
-1.4581389427185059
 21
0.06793621927499771
 31
3.7125015258789062
 12
-2.1199779510498047
 22
0.06793621927499771
 32
3.7125015258789062
 13
-2.1184334754943848
 23
0.10588452965021133
 33
3.8137195110321045
  0
3DFACE
  8
0
 10
-1.4568209648132324
 20
-0.10586979240179062
 30
3.814058542251587
 11
-1.4560225009918213
 21
-0.08672569692134857
 31
3.9123878479003906
 12
-2.116888999938965
 22
-0.08672569692134857
 32
3.9123878479003906
 13
-2.1180543899536133
 23
-0.10586979240179062
 33
3.814058542251587
  0
3DFACE
  8
0
 10
-1.4581389427185059
 20
0.06793621927499771
 30
3.7125015258789062
 11
-1.4578793048858643
 21
1.4127188478596509e-05
 31
3.662609577178955
 12
-2.1195991039276123
 22
1.4127188478596509e-05
 32
3.662609577178955
 13
-2.1199779510498047
 23
0.06793621927499771
 33
3.7125015258789062
  0
3DFACE
  8
0
 10
-1.4578793048858643
 20
1.4127188478596509e-05
 30
3.662609577178955
 11
-1.4576194286346436
 21
-0.06792283803224564
 31
3.7129523754119873
 12
-2.1192197799682617
 22
-0.06792283803224564
 32
3.7129523754119873
 13
-2.1195991039276123
 23
1.4127188478596509e-05
 33
3.662609577178955
  0
3DFACE
  8
0
 10
-1.4576194286346436
 20
-0.06792283803224564
 30
3.7129523754119873
 11
-1.4568209648132324
 21
-0.10586979240179062
 31
3.814058542251587
 12
-2.1180543899536133
 22
-0.10586979240179062
 32
3.814058542251587
 13
-2.1192197799682617
 23
-0.06792283803224564
 33
3.7129523754119873
  0
3DFACE
  8
0
 10
-1.4560225009918213
 20
0.08672265708446503
 30
3.9123878479003906
 11
-1.4570807218551636
 21
0.10588452965021133
 31
3.8137195110321045
 12
-2.1184334754943848
 22
0.10588452965021133
 32
3.8137195110321045
 13
-2.116888999938965
 23
0.08672265708446503
 33
3.9123878479003906
  0
3DFACE
  8
0
 10
-1.4560225009918213
 20
-0.08672569692134857
 30
3.9123878479003906
 11
-1.4560225009918213
 21
3.1282647796615493e-06
 31
3.936811923980713
 12
-2.116888999938965
 22
3.1282647796615493e-06
 32
3.936811923980713
 13
-2.116888999938965
 23
-0.08672569692134857
 33
3.9123878479003906
  0
3DFACE
  8
0
 10
-0.8957280516624451
 20
0.10588452965021133
 30
3.8137195110321045
 11
-0.8963000774383545
 21
0.06793621927499771
 31
3.7125015258789062
 12
-1.4581389427185059
 22
0.06793621927499771
 32
3.7125015258789062
 13
-1.4570807218551636
 23
0.10588452965021133
 33
3.8137195110321045
  0
3DFACE
  8
0
 10
-0.8963000774383545
 20
0.06793621927499771
 30
3.7125015258789062
 11
-0.8961597084999084
 21
1.4127188478596509e-05
 31
3.662609577178955
 12
-1.4578793048858643
 22
1.4127188478596509e-05
 32
3.662609577178955
 13
-1.4581389427185059
 23
0.06793621927499771
 33
3.7125015258789062
  0
3DFACE
  8
0
 10
-0.8961597084999084
 20
1.4127188478596509e-05
 30
3.662609577178955
 11
-0.8960193395614624
 21
-0.06792283803224564
 31
3.7129523754119873
 12
-1.4576194286346436
 22
-0.06792283803224564
 32
3.7129523754119873
 13
-1.4578793048858643
 23
1.4127188478596509e-05
 33
3.662609577178955
  0
3DFACE
  8
0
 10
-0.8960193395614624
 20
-0.06792283803224564
 30
3.7129523754119873
 11
-0.895587682723999
 21
-0.10586979240179062
 31
3.814058542251587
 12
-1.4568209648132324
 22
-0.10586979240179062
 32
3.814058542251587
 13
-1.4576194286346436
 23
-0.06792283803224564
 33
3.7129523754119873
  0
3DFACE
  8
0
 10
0.8960389494895935
 20
-3.446908522164449e-05
 30
3.66300630569458
 11
0.895675003528595
 21
0.06789704412221909
 31
3.7135767936706543
 12
1.557015061378479
 22
0.06789704412221909
 32
3.7135767936706543
 13
1.5576883554458618
 23
-3.446908522164449e-05
 33
3.66300630569458
  0
3DFACE
  8
0
 10
0.8952005505561829
 20
0.08672261238098145
 30
3.9046788215637207
 11
0.8952005505561829
 21
3.115984782198211e-06
 31
3.936811923980713
 12
1.556137204170227
 22
3.115984782198211e-06
 32
3.936811923980713
 13
1.556137204170227
 23
0.08672261238098145
 33
3.9046788215637207
  0
3DFACE
  8
0
 10
0.896402895450592
 20
-0.06794264167547226
 30
3.7124078273773193
 11
0.8960389494895935
 21
-3.446908522164449e-05
 31
3.66300630569458
 12
1.5576883554458618
 22
-3.446908522164449e-05
 32
3.66300630569458
 13
1.5583616495132446
 23
-0.06794264167547226
 33
3.7124078273773193
  0
3DFACE
  8
0
 10
0.8958017230033875
 20
-0.10588609427213669
 30
3.8136489391326904
 11
0.896402895450592
 21
-0.06794264167547226
 31
3.7124078273773193
 12
1.5583616495132446
 22
-0.06794264167547226
 32
3.7124078273773193
 13
1.5572494268417358
 23
-0.10588609427213669
 33
3.8136489391326904
  0
3DFACE
  8
0
 10
0.895675003528595
 20
0.06789704412221909
 30
3.7135767936706543
 11
0.8954377770423889
 21
0.10585222393274307
 31
3.814527750015259
 12
1.556576132774353
 22
0.10585222393274307
 32
3.814527750015259
 13
1.557015061378479
 23
0.06789704412221909
 33
3.7135767936706543
  0
3DFACE
  8
0
 10
0.8954377770423889
 20
0.10585222393274307
 30
3.814527750015259
 11
0.8952005505561829
 21
0.08672261238098145
 31
3.9046788215637207
 12
1.556137204170227
 22
0.08672261238098145
 32
3.9046788215637207
 13
1.556576132774353
 23
0.10585222393274307
 33
3.814527750015259
  0
3DFACE
  8
0
 10
-2.54424786567688
 20
-0.10000002384185791
 30
3.602470874786377
 11
-2.54424786567688
 21
-0.10000002384185791
 31
4.002470970153809
 12
-2.7743418216705322
 22
-0.1985291689634323
 32
3.9599525928497314
 13
-2.7743418216705322
 23
-0.1985291689634323
 33
3.659214496612549
  0
3DFACE
  8
0
 10
-2.54424786567688
 20
0.10000002384185791
 30
4.002470970153809
 11
-2.2442479133605957
 21
0.10000002384185791
 31
3.6607980728149414
 12
-2.54424786567688
 22
0.10000002384185791
 32
3.602470874786377
 13
-2.54424786567688
 23
0.10000002384185791
 33
3.602470874786377
  0
3DFACE
  8
0
 10
-2.54424786567688
 20
0.10000002384185791
 30
4.002470970153809
 11
-2.4442479610443115
 21
0.10000002384185791
 31
3.983600378036499
 12
-2.2442479133605957
 22
0.10000002384185791
 32
3.6607980728149414
 13
-2.2442479133605957
 23
0.10000002384185791
 33
3.6607980728149414
  0
3DFACE
  8
0
 10
-2.4442479610443115
 20
0.10000002384185791
 30
3.983600378036499
 11
-2.2442479133605957
 21
0.10000002384185791
 31
3.9647295475006104
 12
-2.2442479133605957
 22
0.10000002384185791
 32
3.6607980728149414
 13
-2.2442479133605957
 23
0.10000002384185791
 33
3.6607980728149414
  0
3DFACE
  8
0
 10
-2.116888999938965
 20
-0.08672569692134857
 30
3.9123878479003906
 11
-2.2442479133605957
 21
-0.10000002384185791
 31
3.9647295475006104
 12
-2.2442479133605957
 22
-0.10000002384185791
 32
3.6607980728149414
 13
-2.2442479133605957
 23
-0.10000002384185791
 33
3.6607980728149414
  0
3DFACE
  8
0
 10
-2.1180543899536133
 20
-0.10586979240179062
 30
3.814058542251587
 11
-2.116888999938965
 21
-0.08672569692134857
 31
3.9123878479003906
 12
-2.2442479133605957
 22
-0.10000002384185791
 32
3.6607980728149414
 13
-2.2442479133605957
 23
-0.10000002384185791
 33
3.6607980728149414
  0
3DFACE
  8
0
 10
-2.1180543899536133
 20
-0.10586979240179062
 30
3.814058542251587
 11
-2.2442479133605957
 21
-0.10000002384185791
 31
3.6607980728149414
 12
-2.1192197799682617
 22
-0.06792283803224564
 32
3.7129523754119873
 13
-2.1192197799682617
 23
-0.06792283803224564
 33
3.7129523754119873
  0
3DFACE
  8
0
 10
-2.4442479610443115
 20
-0.10000002384185791
 30
3.983600378036499
 11
-2.54424786567688
 21
-0.10000002384185791
 31
4.002470970153809
 12
-2.54424786567688
 22
-0.10000002384185791
 32
3.602470874786377
 13
-2.54424786567688
 23
-0.10000002384185791
 33
3.602470874786377
  0
3DFACE
  8
0
 10
-2.2442479133605957
 20
-0.10000002384185791
 30
3.9647295475006104
 11
-2.4442479610443115
 21
-0.10000002384185791
 31
3.983600378036499
 12
-2.54424786567688
 22
-0.10000002384185791
 32
3.602470874786377
 13
-2.54424786567688
 23
-0.10000002384185791
 33
3.602470874786377
  0
3DFACE
  8
0
 10
-2.2442479133605957
 20
-0.10000002384185791
 30
3.9647295475006104
 11
-2.54424786567688
 21
-0.10000002384185791
 31
3.602470874786377
 12
-2.2442479133605957
 22
-0.10000002384185791
 32
3.6607980728149414
 13
-2.2442479133605957
 23
-0.10000002384185791
 33
3.6607980728149414
  0
3DFACE
  8
0
 10
-2.5604207515716553
 20
0.004995930939912796
 30
3.5553383827209473
 11
-2.54424786567688
 21
0.10000002384185791
 31
3.602470874786377
 12
-2.2442479133605957
 22
0.10000002384185791
 32
3.6607980728149414
 13
-2.194629430770874
 23
0.004995930939912796
 33
3.6232595443725586
  0
3DFACE
  8
0
 10
-2.4442479610443115
 20
-0.10000002384185791
 30
3.983600378036499
 11
-2.2442479133605957
 21
-0.10000002384185791
 31
3.9647295475006104
 12
-2.306718349456787
 22
-0.0984974205493927
 32
4.123039245605469
 13
-2.506718397140503
 23
-0.0984974205493927
 33
4.141909599304199
  0
3DFACE
  8
0
 10
-2.8498756885528564
 20
-0.15417030453681946
 30
3.971618413925171
 11
-2.8112947940826416
 21
-0.07483992725610733
 31
3.9599525928497314
 12
-2.8112947940826416
 22
-0.07483992725610733
 32
3.659214496612549
 13
-2.8498756885528564
 23
-0.15417030453681946
 33
3.621415138244629
  0
3DFACE
  8
0
 10
-2.5604207515716553
 20
0.004995930939912796
 30
3.5553383827209473
 11
-2.54424786567688
 21
-0.10000002384185791
 31
3.602470874786377
 12
-2.7743418216705322
 22
-0.1985291689634323
 32
3.659214496612549
 13
-2.8498756885528564
 23
-0.15417030453681946
 33
3.621415138244629
  0
3DFACE
  8
0
 10
-2.54424786567688
 20
0.10000002384185791
 30
4.002470970153809
 11
-2.54424786567688
 21
0.10000002384185791
 31
3.602470874786377
 12
-2.8112947940826416
 22
-0.07483992725610733
 32
3.659214496612549
 13
-2.8112947940826416
 23
-0.07483992725610733
 33
3.9599525928497314
  0
3DFACE
  8
0
 10
-2.5604207515716553
 20
0.004995930939912796
 30
4.021130561828613
 11
-2.54424786567688
 21
0.10000002384185791
 31
4.002470970153809
 12
-2.8112947940826416
 22
-0.07483992725610733
 32
3.9599525928497314
 13
-2.8498756885528564
 23
-0.15417030453681946
 33
3.971618413925171
  0
3DFACE
  8
0
 10
-2.427525043487549
 20
0.004995930939912796
 30
3.9991557598114014
 11
-2.4442479610443115
 21
0.10000002384185791
 31
3.983600378036499
 12
-2.54424786567688
 22
0.10000002384185791
 32
4.002470970153809
 13
-2.5604207515716553
 23
0.004995930939912796
 33
4.021130561828613
  0
3DFACE
  8
0
 10
-2.275019884109497
 20
0.006498531438410282
 30
4.153555870056152
 11
-2.306718349456787
 21
0.10150262713432312
 31
4.123039245605469
 12
-2.506718397140503
 22
0.10150262713432312
 32
4.141909599304199
 13
-2.507915735244751
 23
0.006498531438410282
 33
4.175531387329102
  0
3DFACE
  8
0
 10
-2.2442479133605957
 20
0.10000002384185791
 30
3.9647295475006104
 11
-2.4442479610443115
 21
0.10000002384185791
 31
3.983600378036499
 12
-2.506718397140503
 22
0.10150262713432312
 32
4.141909599304199
 13
-2.306718349456787
 23
0.10150262713432312
 33
4.123039245605469
  0
3DFACE
  8
0
 10
-2.427525043487549
 20
0.004995930939912796
 30
3.9991557598114014
 11
-2.4442479610443115
 21
-0.10000002384185791
 31
3.983600378036499
 12
-2.506718397140503
 22
-0.0984974205493927
 32
4.141909599304199
 13
-2.507915735244751
 23
0.006498531438410282
 33
4.175531387329102
  0
3DFACE
  8
0
 10
-2.194629430770874
 20
0.004995930939912796
 30
3.9771807193756104
 11
-2.2442479133605957
 21
0.10000002384185791
 31
3.9647295475006104
 12
-2.306718349456787
 22
0.10150262713432312
 32
4.123039245605469
 13
-2.275019884109497
 23
0.006498531438410282
 33
4.153555870056152
  0
3DFACE
  8
0
 10
-2.116888999938965
 20
-0.08672569692134857
 30
3.9123878479003906
 11
-2.116888999938965
 21
3.1282647796615493e-06
 31
3.936811923980713
 12
-2.194629430770874
 22
0.004995930939912796
 32
3.9771807193756104
 13
-2.2442479133605957
 23
-0.10000002384185791
 33
3.9647295475006104
  0
3DFACE
  8
0
 10
-2.54424786567688
 20
-0.10000002384185791
 30
3.602470874786377
 11
-2.5604207515716553
 21
0.004995930939912796
 31
3.5553383827209473
 12
-2.194629430770874
 22
0.004995930939912796
 32
3.6232595443725586
 13
-2.2442479133605957
 23
-0.10000002384185791
 33
3.6607980728149414
  0
3DFACE
  8
0
 10
-2.7743418216705322
 20
-0.1985291689634323
 30
3.9599525928497314
 11
-2.8498756885528564
 21
-0.15417030453681946
 31
3.971618413925171
 12
-2.8498756885528564
 22
-0.15417030453681946
 32
3.621415138244629
 13
-2.7743418216705322
 23
-0.1985291689634323
 33
3.659214496612549
  0
3DFACE
  8
0
 10
-2.54424786567688
 20
0.10000002384185791
 30
3.602470874786377
 11
-2.5604207515716553
 21
0.004995930939912796
 31
3.5553383827209473
 12
-2.8498756885528564
 22
-0.15417030453681946
 32
3.621415138244629
 13
-2.8112947940826416
 23
-0.07483992725610733
 33
3.659214496612549
  0
3DFACE
  8
0
 10
-2.54424786567688
 20
-0.10000002384185791
 30
4.002470970153809
 11
-2.5604207515716553
 21
0.004995930939912796
 31
4.021130561828613
 12
-2.8498756885528564
 22
-0.15417030453681946
 32
3.971618413925171
 13
-2.7743418216705322
 23
-0.1985291689634323
 33
3.9599525928497314
  0
3DFACE
  8
0
 10
-2.4442479610443115
 20
-0.10000002384185791
 30
3.983600378036499
 11
-2.427525043487549
 21
0.004995930939912796
 31
3.9991557598114014
 12
-2.5604207515716553
 22
0.004995930939912796
 32
4.021130561828613
 13
-2.54424786567688
 23
-0.10000002384185791
 33
4.002470970153809
  0
3DFACE
  8
0
 10
-2.306718349456787
 20
-0.0984974205493927
 30
4.123039245605469
 11
-2.275019884109497
 21
0.006498531438410282
 31
4.153555870056152
 12
-2.507915735244751
 22
0.006498531438410282
 32
4.175531387329102
 13
-2.506718397140503
 23
-0.0984974205493927
 33
4.141909599304199
  0
3DFACE
  8
0
 10
-2.4442479610443115
 20
0.10000002384185791
 30
3.983600378036499
 11
-2.427525043487549
 21
0.004995930939912796
 31
3.9991557598114014
 12
-2.507915735244751
 22
0.006498531438410282
 32
4.175531387329102
 13
-2.506718397140503
 23
0.10150262713432312
 33
4.141909599304199
  0
3DFACE
  8
0
 10
-2.2442479133605957
 20
-0.10000002384185791
 30
3.9647295475006104
 11
-2.194629430770874
 21
0.004995930939912796
 31
3.9771807193756104
 12
-2.275019884109497
 22
0.006498531438410282
 32
4.153555870056152
 13
-2.306718349456787
 23
-0.0984974205493927
 33
4.123039245605469
  0
3DFACE
  8
0
 10
-2.116888999938965
 20
0.08672265708446503
 30
3.9123878479003906
 11
-2.2442479133605957
 21
0.10000002384185791
 31
3.9647295475006104
 12
-2.194629430770874
 22
0.004995930939912796
 32
3.9771807193756104
 13
-2.116888999938965
 23
3.1282647796615493e-06
 33
3.936811923980713
  0
3DFACE
  8
0
 10
-2.1199779510498047
 20
0.06793621927499771
 30
3.7125015258789062
 11
-2.2442479133605957
 21
0.10000002384185791
 31
3.6607980728149414
 12
-2.2442479133605957
 22
0.10000002384185791
 32
3.9647295475006104
 13
-2.2442479133605957
 23
0.10000002384185791
 33
3.9647295475006104
  0
3DFACE
  8
0
 10
-2.1184334754943848
 20
0.10588452965021133
 30
3.8137195110321045
 11
-2.1199779510498047
 21
0.06793621927499771
 31
3.7125015258789062
 12
-2.2442479133605957
 22
0.10000002384185791
 32
3.9647295475006104
 13
-2.2442479133605957
 23
0.10000002384185791
 33
3.9647295475006104
  0
3DFACE
  8
0
 10
-2.1184334754943848
 20
0.10588452965021133
 30
3.8137195110321045
 11
-2.2442479133605957
 21
0.10000002384185791
 31
3.9647295475006104
 12
-2.116888999938965
 22
0.08672265708446503
 32
3.9123878479003906
 13
-2.116888999938965
 23
0.08672265708446503
 33
3.9123878479003906
  0
3DFACE
  8
0
 10
-2.1192197799682617
 20
-0.06792283803224564
 30
3.7129523754119873
 11
-2.2442479133605957
 21
-0.10000002384185791
 31
3.6607980728149414
 12
-2.194629430770874
 22
0.004995930939912796
 32
3.6232595443725586
 13
-2.1195991039276123
 23
1.4127188478596509e-05
 33
3.662609577178955
  0
3DFACE
  8
0
 10
-2.1199779510498047
 20
0.06793621927499771
 30
3.7125015258789062
 11
-2.1195991039276123
 21
1.4127188478596509e-05
 31
3.662609577178955
 12
-2.194629430770874
 22
0.004995930939912796
 32
3.6232595443725586
 13
-2.2442479133605957
 23
0.10000002384185791
 33
3.6607980728149414
  0
3DFACE
  8
0
 10
2.647047281265259
 20
-0.10000002384185791
 30
3.602470874786377
 11
2.877141237258911
 21
-0.1985291689634323
 31
3.659214496612549
 12
2.877141237258911
 22
-0.1985291689634323
 32
3.9599525928497314
 13
2.647047281265259
 23
-0.10000002384185791
 33
4.002470970153809
  0
3DFACE
  8
0
 10
2.647047281265259
 20
0.10000002384185791
 30
4.002470970153809
 11
2.647047281265259
 21
0.10000002384185791
 31
3.602470874786377
 12
2.3470473289489746
 22
0.10000002384185791
 32
3.6607980728149414
 13
2.3470473289489746
 23
0.10000002384185791
 33
3.6607980728149414
  0
3DFACE
  8
0
 10
2.3470473289489746
 20
0.10000002384185791
 30
3.6607980728149414
 11
2.3470473289489746
 21
0.10000002384185791
 31
3.9647295475006104
 12
2.5470473766326904
 22
0.10000002384185791
 32
3.983600378036499
 13
2.5470473766326904
 23
0.10000002384185791
 33
3.983600378036499
  0
3DFACE
  8
0
 10
2.647047281265259
 20
0.10000002384185791
 30
4.002470970153809
 11
2.3470473289489746
 21
0.10000002384185791
 31
3.6607980728149414
 12
2.5470473766326904
 22
0.10000002384185791
 32
3.983600378036499
 13
2.5470473766326904
 23
0.10000002384185791
 33
3.983600378036499
  0
3DFACE
  8
0
 10
2.3470473289489746
 20
-0.10000002384185791
 30
3.6607980728149414
 11
2.3470473289489746
 21
-0.10000002384185791
 31
3.9647295475006104
 12
2.2196884155273438
 22
-0.08672569692134857
 32
3.9123878479003906
 13
2.2196884155273438
 23
-0.08672569692134857
 33
3.9123878479003906
  0
3DFACE
  8
0
 10
2.220853805541992
 20
-0.10586979240179062
 30
3.814058542251587
 11
2.3470473289489746
 21
-0.10000002384185791
 31
3.6607980728149414
 12
2.2196884155273438
 22
-0.08672569692134857
 32
3.9123878479003906
 13
2.2196884155273438
 23
-0.08672569692134857
 33
3.9123878479003906
  0
3DFACE
  8
0
 10
2.220853805541992
 20
-0.10586979240179062
 30
3.814058542251587
 11
2.2220191955566406
 21
-0.06792283803224564
 31
3.7129523754119873
 12
2.3470473289489746
 22
-0.10000002384185791
 32
3.6607980728149414
 13
2.3470473289489746
 23
-0.10000002384185791
 33
3.6607980728149414
  0
3DFACE
  8
0
 10
2.647047281265259
 20
-0.10000002384185791
 30
3.602470874786377
 11
2.647047281265259
 21
-0.10000002384185791
 31
4.002470970153809
 12
2.5470473766326904
 22
-0.10000002384185791
 32
3.983600378036499
 13
2.5470473766326904
 23
-0.10000002384185791
 33
3.983600378036499
  0
3DFACE
  8
0
 10
2.3470473289489746
 20
-0.10000002384185791
 30
3.9647295475006104
 11
2.647047281265259
 21
-0.10000002384185791
 31
3.602470874786377
 12
2.5470473766326904
 22
-0.10000002384185791
 32
3.983600378036499
 13
2.5470473766326904
 23
-0.10000002384185791
 33
3.983600378036499
  0
3DFACE
  8
0
 10
2.3470473289489746
 20
-0.10000002384185791
 30
3.9647295475006104
 11
2.3470473289489746
 21
-0.10000002384185791
 31
3.6607980728149414
 12
2.647047281265259
 22
-0.10000002384185791
 32
3.602470874786377
 13
2.647047281265259
 23
-0.10000002384185791
 33
3.602470874786377
  0
3DFACE
  8
0
 10
2.663220167160034
 20
0.004995930939912796
 30
3.5553383827209473
 11
2.297428846359253
 21
0.004995930939912796
 31
3.6232595443725586
 12
2.3470473289489746
 22
0.10000002384185791
 32
3.6607980728149414
 13
2.647047281265259
 23
0.10000002384185791
 33
3.602470874786377
  0
3DFACE
  8
0
 10
2.5470473766326904
 20
-0.10000002384185791
 30
3.983600378036499
 11
2.609517812728882
 21
-0.0984974205493927
 31
4.141909599304199
 12
2.409517765045166
 22
-0.0984974205493927
 32
4.123039245605469
 13
2.3470473289489746
 23
-0.10000002384185791
 33
3.9647295475006104
  0
3DFACE
  8
0
 10
2.9526751041412354
 20
-0.15417030453681946
 30
3.971618413925171
 11
2.9526751041412354
 21
-0.15417030453681946
 31
3.621415138244629
 12
2.9140942096710205
 22
-0.07483992725610733
 32
3.659214496612549
 13
2.9140942096710205
 23
-0.07483992725610733
 33
3.9599525928497314
  0
3DFACE
  8
0
 10
2.663220167160034
 20
0.004995930939912796
 30
3.5553383827209473
 11
2.9526751041412354
 21
-0.15417030453681946
 31
3.621415138244629
 12
2.877141237258911
 22
-0.1985291689634323
 32
3.659214496612549
 13
2.647047281265259
 23
-0.10000002384185791
 33
3.602470874786377
  0
3DFACE
  8
0
 10
2.647047281265259
 20
0.10000002384185791
 30
4.002470970153809
 11
2.9140942096710205
 21
-0.07483992725610733
 31
3.9599525928497314
 12
2.9140942096710205
 22
-0.07483992725610733
 32
3.659214496612549
 13
2.647047281265259
 23
0.10000002384185791
 33
3.602470874786377
  0
3DFACE
  8
0
 10
2.663220167160034
 20
0.004995930939912796
 30
4.021130561828613
 11
2.9526751041412354
 21
-0.15417030453681946
 31
3.971618413925171
 12
2.9140942096710205
 22
-0.07483992725610733
 32
3.9599525928497314
 13
2.647047281265259
 23
0.10000002384185791
 33
4.002470970153809
  0
3DFACE
  8
0
 10
2.5303244590759277
 20
0.004995930939912796
 30
3.9991557598114014
 11
2.663220167160034
 21
0.004995930939912796
 31
4.021130561828613
 12
2.647047281265259
 22
0.10000002384185791
 32
4.002470970153809
 13
2.5470473766326904
 23
0.10000002384185791
 33
3.983600378036499
  0
3DFACE
  8
0
 10
2.377819299697876
 20
0.006498532369732857
 30
4.153555870056152
 11
2.61071515083313
 21
0.006498532369732857
 31
4.175531387329102
 12
2.609517812728882
 22
0.10150262713432312
 32
4.141909599304199
 13
2.409517765045166
 23
0.10150262713432312
 33
4.123039245605469
  0
3DFACE
  8
0
 10
2.3470473289489746
 20
0.10000002384185791
 30
3.9647295475006104
 11
2.409517765045166
 21
0.10150262713432312
 31
4.123039245605469
 12
2.609517812728882
 22
0.10150262713432312
 32
4.141909599304199
 13
2.5470473766326904
 23
0.10000002384185791
 33
3.983600378036499
  0
3DFACE
  8
0
 10
2.5303244590759277
 20
0.004995930939912796
 30
3.9991557598114014
 11
2.61071515083313
 21
0.006498532369732857
 31
4.175531387329102
 12
2.609517812728882
 22
-0.0984974205493927
 32
4.141909599304199
 13
2.5470473766326904
 23
-0.10000002384185791
 33
3.983600378036499
  0
3DFACE
  8
0
 10
2.297428846359253
 20
0.004995930939912796
 30
3.9771807193756104
 11
2.377819299697876
 21
0.006498532369732857
 31
4.153555870056152
 12
2.409517765045166
 22
0.10150262713432312
 32
4.123039245605469
 13
2.3470473289489746
 23
0.10000002384185791
 33
3.9647295475006104
  0
3DFACE
  8
0
 10
2.2196884155273438
 20
-0.08672569692134857
 30
3.9123878479003906
 11
2.3470473289489746
 21
-0.10000002384185791
 31
3.9647295475006104
 12
2.297428846359253
 22
0.004995930939912796
 32
3.9771807193756104
 13
2.2196884155273438
 23
3.127381205558777e-06
 33
3.936811923980713
  0
3DFACE
  8
0
 10
2.647047281265259
 20
-0.10000002384185791
 30
3.602470874786377
 11
2.3470473289489746
 21
-0.10000002384185791
 31
3.6607980728149414
 12
2.297428846359253
 22
0.004995930939912796
 32
3.6232595443725586
 13
2.663220167160034
 23
0.004995930939912796
 33
3.5553383827209473
  0
3DFACE
  8
0
 10
2.877141237258911
 20
-0.1985291689634323
 30
3.9599525928497314
 11
2.877141237258911
 21
-0.1985291689634323
 31
3.659214496612549
 12
2.9526751041412354
 22
-0.15417030453681946
 32
3.621415138244629
 13
2.9526751041412354
 23
-0.15417030453681946
 33
3.971618413925171
  0
3DFACE
  8
0
 10
2.647047281265259
 20
0.10000002384185791
 30
3.602470874786377
 11
2.9140942096710205
 21
-0.07483992725610733
 31
3.659214496612549
 12
2.9526751041412354
 22
-0.15417030453681946
 32
3.621415138244629
 13
2.663220167160034
 23
0.004995930939912796
 33
3.5553383827209473
  0
3DFACE
  8
0
 10
2.647047281265259
 20
-0.10000002384185791
 30
4.002470970153809
 11
2.877141237258911
 21
-0.1985291689634323
 31
3.9599525928497314
 12
2.9526751041412354
 22
-0.15417030453681946
 32
3.971618413925171
 13
2.663220167160034
 23
0.004995930939912796
 33
4.021130561828613
  0
3DFACE
  8
0
 10
2.5470473766326904
 20
-0.10000002384185791
 30
3.983600378036499
 11
2.647047281265259
 21
-0.10000002384185791
 31
4.002470970153809
 12
2.663220167160034
 22
0.004995930939912796
 32
4.021130561828613
 13
2.5303244590759277
 23
0.004995930939912796
 33
3.9991557598114014
  0
3DFACE
  8
0
 10
2.409517765045166
 20
-0.0984974205493927
 30
4.123039245605469
 11
2.609517812728882
 21
-0.0984974205493927
 31
4.141909599304199
 12
2.61071515083313
 22
0.006498532369732857
 32
4.175531387329102
 13
2.377819299697876
 23
0.006498532369732857
 33
4.153555870056152
  0
3DFACE
  8
0
 10
2.5470473766326904
 20
0.10000002384185791
 30
3.983600378036499
 11
2.609517812728882
 21
0.10150262713432312
 31
4.141909599304199
 12
2.61071515083313
 22
0.006498532369732857
 32
4.175531387329102
 13
2.5303244590759277
 23
0.004995930939912796
 33
3.9991557598114014
  0
3DFACE
  8
0
 10
2.3470473289489746
 20
-0.10000002384185791
 30
3.9647295475006104
 11
2.409517765045166
 21
-0.0984974205493927
 31
4.123039245605469
 12
2.377819299697876
 22
0.006498532369732857
 32
4.153555870056152
 13
2.297428846359253
 23
0.004995930939912796
 33
3.9771807193756104
  0
3DFACE
  8
0
 10
2.2196884155273438
 20
0.08672266453504562
 30
3.9123878479003906
 11
2.2196884155273438
 21
3.127381205558777e-06
 31
3.936811923980713
 12
2.297428846359253
 22
0.004995930939912796
 32
3.9771807193756104
 13
2.3470473289489746
 23
0.10000002384185791
 33
3.9647295475006104
  0
3DFACE
  8
0
 10
2.3470473289489746
 20
0.10000002384185791
 30
3.9647295475006104
 11
2.3470473289489746
 21
0.10000002384185791
 31
3.6607980728149414
 12
2.2227773666381836
 22
0.06793621927499771
 32
3.7125015258789062
 13
2.2227773666381836
 23
0.06793621927499771
 33
3.7125015258789062
  0
3DFACE
  8
0
 10
2.2212328910827637
 20
0.10588452965021133
 30
3.8137195110321045
 11
2.3470473289489746
 21
0.10000002384185791
 31
3.9647295475006104
 12
2.2227773666381836
 22
0.06793621927499771
 32
3.7125015258789062
 13
2.2227773666381836
 23
0.06793621927499771
 33
3.7125015258789062
  0
3DFACE
  8
0
 10
2.2212328910827637
 20
0.10588452965021133
 30
3.8137195110321045
 11
2.2196884155273438
 21
0.08672266453504562
 31
3.9123878479003906
 12
2.3470473289489746
 22
0.10000002384185791
 32
3.9647295475006104
 13
2.3470473289489746
 23
0.10000002384185791
 33
3.9647295475006104
  0
3DFACE
  8
0
 10
2.2220191955566406
 20
-0.06792283803224564
 30
3.7129523754119873
 11
2.222398519515991
 21
1.4126300811767578e-05
 31
3.662609577178955
 12
2.297428846359253
 22
0.004995930939912796
 32
3.6232595443725586
 13
2.3470473289489746
 23
-0.10000002384185791
 33
3.6607980728149414
  0
3DFACE
  8
0
 10
2.2227773666381836
 20
0.06793621927499771
 30
3.7125015258789062
 11
2.3470473289489746
 21
0.10000002384185791
 31
3.6607980728149414
 12
2.297428846359253
 22
0.004995930939912796
 32
3.6232595443725586
 13
2.222398519515991
 23
1.4126300811767578e-05
 33
3.662609577178955
  0
3DFACE
  8
0
 10
1.556137204170227
 20
3.115984782198211e-06
 30
3.936811923980713
 11
2.2196884155273438
 21
3.127381205558777e-06
 31
3.936811923980713
 12
2.2196884155273438
 22
0.08672266453504562
 32
3.9123878479003906
 13
1.556137204170227
 23
0.08672261238098145
 33
3.9046788215637207
  0
3DFACE
  8
0
 10
1.556576132774353
 20
0.10585222393274307
 30
3.814527750015259
 11
2.2212328910827637
 21
0.10588452965021133
 31
3.8137195110321045
 12
2.2227773666381836
 22
0.06793621927499771
 32
3.7125015258789062
 13
1.557015061378479
 23
0.06789704412221909
 33
3.7135767936706543
  0
3DFACE
  8
0
 10
1.5572494268417358
 20
-0.10588609427213669
 30
3.8136489391326904
 11
2.220853805541992
 21
-0.10586979240179062
 31
3.814058542251587
 12
2.2196884155273438
 22
-0.08672569692134857
 32
3.9123878479003906
 13
1.556137204170227
 23
-0.08672566711902618
 33
3.9046788215637207
  0
3DFACE
  8
0
 10
1.557015061378479
 20
0.06789704412221909
 30
3.7135767936706543
 11
2.2227773666381836
 21
0.06793621927499771
 31
3.7125015258789062
 12
2.222398519515991
 22
1.4126300811767578e-05
 32
3.662609577178955
 13
1.5576883554458618
 23
-3.446908522164449e-05
 33
3.66300630569458
  0
3DFACE
  8
0
 10
1.5576883554458618
 20
-3.446908522164449e-05
 30
3.66300630569458
 11
2.222398519515991
 21
1.4126300811767578e-05
 31
3.662609577178955
 12
2.2220191955566406
 22
-0.06792283803224564
 32
3.7129523754119873
 13
1.5583616495132446
 23
-0.06794264167547226
 33
3.7124078273773193
  0
3DFACE
  8
0
 10
1.5583616495132446
 20
-0.06794264167547226
 30
3.7124078273773193
 11
2.2220191955566406
 21
-0.06792283803224564
 31
3.7129523754119873
 12
2.220853805541992
 22
-0.10586979240179062
 32
3.814058542251587
 13
1.5572494268417358
 23
-0.10588609427213669
 33
3.8136489391326904
  0
3DFACE
  8
0
 10
1.556137204170227
 20
0.08672261238098145
 30
3.9046788215637207
 11
2.2196884155273438
 21
0.08672266453504562
 31
3.9123878479003906
 12
2.2212328910827637
 22
0.10588452965021133
 32
3.8137195110321045
 13
1.556576132774353
 23
0.10585222393274307
 33
3.814527750015259
  0
3DFACE
  8
0
 10
1.556137204170227
 20
-0.08672566711902618
 30
3.9046788215637207
 11
2.2196884155273438
 21
-0.08672569692134857
 31
3.9123878479003906
 12
2.2196884155273438
 22
3.127381205558777e-06
 32
3.936811923980713
 13
1.556137204170227
 23
3.115984782198211e-06
 33
3.936811923980713
  0
3DFACE
  8
0
 10
-0.36156320571899414
 20
0.0896519273519516
 30
-0.0030462443828582764
 11
-0.26256829500198364
 21
0.19597207009792328
 31
-0.0030462443828582764
 12
-0.16357338428497314
 22
0.08965189754962921
 32
-0.0030462443828582764
 13
-0.16357338428497314
 23
0.08965189754962921
 33
-0.0030462443828582764
  0
3DFACE
  8
0
 10
-0.40256834030151367
 20
-0.16702790558338165
 30
-0.0030462443828582764
 11
-0.36156320571899414
 21
0.0896519273519516
 31
-0.0030462443828582764
 12
-0.16357338428497314
 22
0.08965189754962921
 32
-0.0030462443828582764
 13
-0.16357338428497314
 23
0.08965189754962921
 33
-0.0030462443828582764
  0
3DFACE
  8
0
 10
-0.40256834030151367
 20
-0.16702790558338165
 30
-0.0030462443828582764
 11
-0.16357338428497314
 21
0.08965189754962921
 31
-0.0030462443828582764
 12
-0.12256824970245361
 22
-0.16702798008918762
 32
-0.0030462443828582764
 13
-0.12256824970245361
 23
-0.16702798008918762
 33
-0.0030462443828582764
  0
3DFACE
  8
0
 10
-0.40256834030151367
 20
-0.16702790558338165
 30
-0.0030462443828582764
 11
-0.12256824970245361
 21
-0.16702798008918762
 31
-0.0030462443828582764
 12
-0.36156320571899414
 22
-0.4237075448036194
 32
-0.0030462443828582764
 13
-0.36156320571899414
 23
-0.4237075448036194
 33
-0.0030462443828582764
  0
3DFACE
  8
0
 10
-0.12256824970245361
 20
-0.16702798008918762
 30
-0.0030462443828582764
 11
-0.16357338428497314
 21
-0.42370760440826416
 31
-0.0030462443828582764
 12
-0.36156320571899414
 22
-0.4237075448036194
 32
-0.0030462443828582764
 13
-0.36156320571899414
 23
-0.4237075448036194
 33
-0.0030462443828582764
  0
3DFACE
  8
0
 10
-0.16357338428497314
 20
-0.42370760440826416
 30
-0.0030462443828582764
 11
-0.26256829500198364
 21
-0.5300281047821045
 31
-0.0030462443828582764
 12
-0.36156320571899414
 22
-0.4237075448036194
 32
-0.0030462443828582764
 13
-0.36156320571899414
 23
-0.4237075448036194
 33
-0.0030462443828582764
  0
3DFACE
  8
0
 10
-0.2625831067562103
 20
-0.22782942652702332
 30
1.1552295684814453
 11
-0.26256829500198364
 21
-0.25742194056510925
 31
2.1719584465026855
 12
-0.3813621997833252
 22
-0.1836126744747162
 32
2.271958351135254
 13
-0.3776875138282776
 23
-0.16663162410259247
 33
1.1551090478897095
  0
3DFACE
  8
0
 10
-0.3776875138282776
 20
-0.16663162410259247
 30
1.1551090478897095
 11
-0.3813621997833252
 21
-0.1836126744747162
 31
2.271958351135254
 12
-0.4305683672428131
 22
-0.005421807523816824
 32
2.3719582557678223
 13
-0.41744133830070496
 23
-0.024440735578536987
 33
1.1549941301345825
  0
3DFACE
  8
0
 10
-0.14653614163398743
 20
-0.1678440123796463
 30
1.1551027297973633
 11
-0.1437743902206421
 21
-0.1836126744747162
 31
2.071958541870117
 12
-0.26256829500198364
 22
-0.25742194056510925
 32
2.1719584465026855
 13
-0.2625831067562103
 23
-0.22782942652702332
 33
1.1552295684814453
  0
3DFACE
  8
0
 10
-0.10449264198541641
 20
-0.01823105476796627
 30
1.1546802520751953
 11
-0.09456825256347656
 21
-0.005421843379735947
 31
1.9719583988189697
 12
-0.1437743902206421
 22
-0.1836126744747162
 32
2.071958541870117
 13
-0.14653614163398743
 23
-0.1678440123796463
 33
1.1551027297973633
  0
3DFACE
  8
0
 10
-0.15145200490951538
 20
0.11614023149013519
 30
1.1538350582122803
 11
-0.1437743902206421
 21
0.1727692037820816
 31
2.071958541870117
 12
-0.09456825256347656
 22
-0.005421843379735947
 32
1.9719583988189697
 13
-0.10449264198541641
 23
-0.01823105476796627
 33
1.1546802520751953
  0
3DFACE
  8
0
 10
-0.26256829500198364
 20
0.16727124154567719
 30
1.1527814865112305
 11
-0.26256826519966125
 21
0.24657829105854034
 31
2.1719584465026855
 12
-0.1437743902206421
 22
0.1727692037820816
 32
2.071958541870117
 13
-0.15145200490951538
 23
0.11614023149013519
 33
1.1538350582122803
  0
3DFACE
  8
0
 10
-0.37256336212158203
 20
0.10836374014616013
 30
1.1543227434158325
 11
-0.3813621997833252
 21
0.1727692186832428
 31
2.271958351135254
 12
-0.26256826519966125
 22
0.24657829105854034
 32
2.1719584465026855
 13
-0.26256829500198364
 23
0.16727124154567719
 33
1.1527814865112305
  0
3DFACE
  8
0
 10
-0.41744133830070496
 20
-0.024440735578536987
 30
1.1549941301345825
 11
-0.4305683672428131
 21
-0.005421807523816824
 31
2.3719582557678223
 12
-0.3813621997833252
 22
0.1727692186832428
 32
2.271958351135254
 13
-0.37256336212158203
 23
0.10836374014616013
 33
1.1543227434158325
  0
3DFACE
  8
0
 10
0.3631836175918579
 20
-0.4237075448036194
 30
-0.0030462443828582764
 11
0.40418875217437744
 21
-0.16702790558338165
 31
-0.0030462443828582764
 12
0.4111175537109375
 22
-0.09130743891000748
 32
0.5413609743118286
 13
0.3535136878490448
 23
-0.2403380274772644
 33
0.5414484143257141
  0
3DFACE
  8
0
 10
-0.26256826519966125
 20
0.24657829105854034
 30
2.1719584465026855
 11
-0.3813621997833252
 21
0.1727692186832428
 31
2.271958351135254
 12
-0.6349180936813354
 22
0.14394809305667877
 32
2.449094772338867
 13
-0.3962242305278778
 23
0.3798925578594208
 33
2.4172773361206055
  0
3DFACE
  8
0
 10
0.2641887068748474
 20
-0.5300281047821045
 30
-0.0030462443828582764
 11
0.3631836175918579
 21
-0.4237075448036194
 31
-0.0030462443828582764
 12
0.3535136878490448
 22
-0.2403380274772644
 32
0.5414484143257141
 13
0.2641451954841614
 23
-0.3016069531440735
 33
0.5415387153625488
  0
3DFACE
  8
0
 10
-0.41451382637023926
 20
-0.03648383542895317
 30
0.9146797060966492
 11
-0.41744133830070496
 21
-0.024440735578536987
 31
1.1549941301345825
 12
-0.37256336212158203
 22
0.10836374014616013
 32
1.1543227434158325
 13
-0.3704085648059845
 23
0.09656386822462082
 33
0.9143370985984802
  0
3DFACE
  8
0
 10
-0.3704085648059845
 20
0.09656386822462082
 30
0.9143370985984802
 11
-0.37256336212158203
 21
0.10836374014616013
 31
1.1543227434158325
 12
-0.26256829500198364
 22
0.16727124154567719
 32
1.1527814865112305
 13
-0.26256829500198364
 23
0.1546642929315567
 33
0.9131924510002136
  0
3DFACE
  8
0
 10
-0.3813621997833252
 20
-0.1836126744747162
 30
2.271958351135254
 11
-0.26256829500198364
 21
-0.25742194056510925
 31
2.1719584465026855
 12
-5.165499317172362e-08
 22
-0.46957293152809143
 32
2.4172773361206055
 13
-0.3962244689464569
 23
-0.3798924386501312
 33
2.4172773361206055
  0
3DFACE
  8
0
 10
-0.4305683672428131
 20
-0.005421807523816824
 30
2.3719582557678223
 11
-0.3813621997833252
 21
-0.1836126744747162
 31
2.271958351135254
 12
-0.3962244689464569
 22
-0.3798924386501312
 32
2.4172773361206055
 13
-0.6349318623542786
 23
-0.14395062625408173
 33
2.449023962020874
  0
3DFACE
  8
0
 10
-0.6349180936813354
 20
0.14394809305667877
 30
2.449094772338867
 11
-0.3813621997833252
 21
0.1727692186832428
 31
2.271958351135254
 12
-0.4305683672428131
 22
-0.005421807523816824
 32
2.3719582557678223
 13
-0.6349318623542786
 23
-0.14395062625408173
 33
2.449023962020874
  0
3DFACE
  8
0
 10
-0.26256829500198364
 20
0.1546642929315567
 30
0.9131924510002136
 11
-0.26256829500198364
 21
0.16727124154567719
 31
1.1527814865112305
 12
-0.15145200490951538
 22
0.11614023149013519
 32
1.1538350582122803
 13
-0.15380096435546875
 23
0.10282324254512787
 33
0.9139489531517029
  0
3DFACE
  8
0
 10
-0.15380096435546875
 20
0.10282324254512787
 30
0.9139489531517029
 11
-0.15145200490951538
 21
0.11614023149013519
 31
1.1538350582122803
 12
-0.10449264198541641
 22
-0.01823105476796627
 32
1.1546802520751953
 13
-0.10797266662120819
 23
-0.030660361051559448
 33
0.9143922924995422
  0
3DFACE
  8
0
 10
-0.10797266662120819
 20
-0.030660361051559448
 30
0.9143922924995422
 11
-0.10449264198541641
 21
-0.01823105476796627
 31
1.1546802520751953
 12
-0.14653614163398743
 22
-0.1678440123796463
 32
1.1551027297973633
 13
-0.1507028490304947
 23
-0.17496252059936523
 33
0.9147946238517761
  0
3DFACE
  8
0
 10
-0.1507028490304947
 20
-0.17496252059936523
 30
0.9147946238517761
 11
-0.14653614163398743
 21
-0.1678440123796463
 31
1.1551027297973633
 12
-0.2625831067562103
 22
-0.22782942652702332
 32
1.1552295684814453
 13
-0.26257744431495667
 23
-0.23317644000053406
 33
0.9149733185768127
  0
3DFACE
  8
0
 10
-0.37350621819496155
 20
-0.17441512644290924
 30
0.9147909283638
 11
-0.3776875138282776
 21
-0.16663162410259247
 31
1.1551090478897095
 12
-0.41744133830070496
 22
-0.024440735578536987
 32
1.1549941301345825
 13
-0.41451382637023926
 23
-0.03648383542895317
 33
0.9146797060966492
  0
3DFACE
  8
0
 10
-0.26257744431495667
 20
-0.23317644000053406
 30
0.9149733185768127
 11
-0.2625831067562103
 21
-0.22782942652702332
 31
1.1552295684814453
 12
-0.3776875138282776
 22
-0.16663162410259247
 32
1.1551090478897095
 13
-0.37350621819496155
 23
-0.17441512644290924
 33
0.9147909283638
  0
3DFACE
  8
0
 10
-0.2625247836112976
 20
-0.3016069531440735
 30
0.5415387153625488
 11
-0.26257744431495667
 21
-0.23317644000053406
 31
0.9149733185768127
 12
-0.37350621819496155
 22
-0.17441512644290924
 32
0.9147909283638
 13
-0.35189327597618103
 23
-0.2403380274772644
 33
0.5414484143257141
  0
3DFACE
  8
0
 10
-0.35189327597618103
 20
-0.2403380274772644
 30
0.5414484143257141
 11
-0.37350621819496155
 21
-0.17441512644290924
 31
0.9147909283638
 12
-0.41451382637023926
 22
-0.03648383542895317
 32
0.9146797060966492
 13
-0.40949714183807373
 23
-0.09130743891000748
 33
0.5413609743118286
  0
3DFACE
  8
0
 10
-0.1726793795824051
 20
-0.24036389589309692
 30
0.5414413809776306
 11
-0.1507028490304947
 21
-0.17496252059936523
 31
0.9147946238517761
 12
-0.26257744431495667
 22
-0.23317644000053406
 32
0.9149733185768127
 13
-0.2625247836112976
 23
-0.3016069531440735
 33
0.5415387153625488
  0
3DFACE
  8
0
 10
-0.11410212516784668
 20
-0.08792835474014282
 30
0.5412042737007141
 11
-0.10797266662120819
 21
-0.030660361051559448
 31
0.9143922924995422
 12
-0.1507028490304947
 22
-0.17496252059936523
 32
0.9147946238517761
 13
-0.1726793795824051
 23
-0.24036389589309692
 33
0.5414413809776306
  0
3DFACE
  8
0
 10
-0.15790672600269318
 20
0.09728945046663284
 30
0.5407501459121704
 11
-0.15380096435546875
 21
0.10282324254512787
 31
0.9139489531517029
 12
-0.10797266662120819
 22
-0.030660361051559448
 32
0.9143922924995422
 13
-0.11410212516784668
 23
-0.08792835474014282
 33
0.5412042737007141
  0
3DFACE
  8
0
 10
-0.26256829500198364
 20
0.172019362449646
 30
0.5403096675872803
 11
-0.26256829500198364
 21
0.1546642929315567
 31
0.9131924510002136
 12
-0.15380096435546875
 22
0.10282324254512787
 32
0.9139489531517029
 13
-0.15790672600269318
 23
0.09728945046663284
 33
0.5407501459121704
  0
3DFACE
  8
0
 10
-0.36669233441352844
 20
0.09365994483232498
 30
0.5409823060035706
 11
-0.3704085648059845
 21
0.09656386822462082
 31
0.9143370985984802
 12
-0.26256829500198364
 22
0.1546642929315567
 32
0.9131924510002136
 13
-0.26256829500198364
 23
0.172019362449646
 33
0.5403096675872803
  0
3DFACE
  8
0
 10
-0.40949714183807373
 20
-0.09130743891000748
 30
0.5413609743118286
 11
-0.41451382637023926
 21
-0.03648383542895317
 31
0.9146797060966492
 12
-0.3704085648059845
 22
0.09656386822462082
 32
0.9143370985984802
 13
-0.36669233441352844
 23
0.09365994483232498
 33
0.5409823060035706
  0
3DFACE
  8
0
 10
-0.26256829500198364
 20
-0.5300281047821045
 30
-0.0030462443828582764
 11
-0.2625247836112976
 21
-0.3016069531440735
 31
0.5415387153625488
 12
-0.35189327597618103
 22
-0.2403380274772644
 32
0.5414484143257141
 13
-0.36156320571899414
 23
-0.4237075448036194
 33
-0.0030462443828582764
  0
3DFACE
  8
0
 10
-0.36156320571899414
 20
-0.4237075448036194
 30
-0.0030462443828582764
 11
-0.35189327597618103
 21
-0.2403380274772644
 31
0.5414484143257141
 12
-0.40949714183807373
 22
-0.09130743891000748
 32
0.5413609743118286
 13
-0.40256834030151367
 23
-0.16702790558338165
 33
-0.0030462443828582764
  0
3DFACE
  8
0
 10
-0.16357338428497314
 20
-0.42370760440826416
 30
-0.0030462443828582764
 11
-0.1726793795824051
 21
-0.24036389589309692
 31
0.5414413809776306
 12
-0.2625247836112976
 22
-0.3016069531440735
 32
0.5415387153625488
 13
-0.26256829500198364
 23
-0.5300281047821045
 33
-0.0030462443828582764
  0
3DFACE
  8
0
 10
-0.12256824970245361
 20
-0.16702798008918762
 30
-0.0030462443828582764
 11
-0.11410212516784668
 21
-0.08792835474014282
 31
0.5412042737007141
 12
-0.1726793795824051
 22
-0.24036389589309692
 32
0.5414413809776306
 13
-0.16357338428497314
 23
-0.42370760440826416
 33
-0.0030462443828582764
  0
3DFACE
  8
0
 10
-0.16357338428497314
 20
0.08965189754962921
 30
-0.0030462443828582764
 11
-0.15790672600269318
 21
0.09728945046663284
 31
0.5407501459121704
 12
-0.11410212516784668
 22
-0.08792835474014282
 32
0.5412042737007141
 13
-0.12256824970245361
 23
-0.16702798008918762
 33
-0.0030462443828582764
  0
3DFACE
  8
0
 10
-0.26256829500198364
 20
0.19597207009792328
 30
-0.0030462443828582764
 11
-0.26256829500198364
 21
0.172019362449646
 31
0.5403096675872803
 12
-0.15790672600269318
 22
0.09728945046663284
 32
0.5407501459121704
 13
-0.16357338428497314
 23
0.08965189754962921
 33
-0.0030462443828582764
  0
3DFACE
  8
0
 10
-0.36156320571899414
 20
0.0896519273519516
 30
-0.0030462443828582764
 11
-0.36669233441352844
 21
0.09365994483232498
 31
0.5409823060035706
 12
-0.26256829500198364
 22
0.172019362449646
 32
0.5403096675872803
 13
-0.26256829500198364
 23
0.19597207009792328
 33
-0.0030462443828582764
  0
3DFACE
  8
0
 10
-0.40256834030151367
 20
-0.16702790558338165
 30
-0.0030462443828582764
 11
-0.40949714183807373
 21
-0.09130743891000748
 31
0.5413609743118286
 12
-0.36669233441352844
 22
0.09365994483232498
 32
0.5409823060035706
 13
-0.36156320571899414
 23
0.0896519273519516
 33
-0.0030462443828582764
  0
3DFACE
  8
0
 10
0.4111175537109375
 20
-0.09130743891000748
 30
0.5413609743118286
 11
0.3683127462863922
 21
0.09365993738174438
 31
0.5409823060035706
 12
0.37202897667884827
 22
0.09656387567520142
 32
0.9143370985984802
 13
0.416134238243103
 23
-0.03648383542895317
 33
0.9146797060966492
  0
3DFACE
  8
0
 10
0.3683127462863922
 20
0.09365993738174438
 30
0.5409823060035706
 11
0.2641887068748474
 21
0.172019362449646
 31
0.5403096675872803
 12
0.2641887068748474
 22
0.1546642929315567
 32
0.9131924510002136
 13
0.37202897667884827
 23
0.09656387567520142
 33
0.9143370985984802
  0
3DFACE
  8
0
 10
0.2641887068748474
 20
0.172019362449646
 30
0.5403096675872803
 11
0.15952712297439575
 21
0.09728944301605225
 31
0.5407501459121704
 12
0.15542137622833252
 22
0.10282324254512787
 32
0.9139489531517029
 13
0.2641887068748474
 23
0.1546642929315567
 33
0.9131924510002136
  0
3DFACE
  8
0
 10
0.15952712297439575
 20
0.09728944301605225
 30
0.5407501459121704
 11
0.11572253704071045
 21
-0.08792835474014282
 31
0.5412042737007141
 12
0.10959309339523315
 22
-0.030660361051559448
 32
0.9143922924995422
 13
0.15542137622833252
 23
0.10282324254512787
 33
0.9139489531517029
  0
3DFACE
  8
0
 10
0.11572253704071045
 20
-0.08792835474014282
 30
0.5412042737007141
 11
0.17429977655410767
 21
-0.24036389589309692
 31
0.5414413809776306
 12
0.15232324600219727
 22
-0.17496252059936523
 32
0.9147946238517761
 13
0.10959309339523315
 23
-0.030660361051559448
 33
0.9143922924995422
  0
3DFACE
  8
0
 10
0.17429977655410767
 20
-0.24036389589309692
 30
0.5414413809776306
 11
0.2641451954841614
 21
-0.3016069531440735
 31
0.5415387153625488
 12
0.26419785618782043
 22
-0.23317644000053406
 32
0.9149733185768127
 13
0.15232324600219727
 23
-0.17496252059936523
 33
0.9147946238517761
  0
3DFACE
  8
0
 10
0.3535136878490448
 20
-0.2403380274772644
 30
0.5414484143257141
 11
0.4111175537109375
 21
-0.09130743891000748
 31
0.5413609743118286
 12
0.416134238243103
 22
-0.03648383542895317
 32
0.9146797060966492
 13
0.3751266300678253
 23
-0.17441512644290924
 33
0.9147909283638
  0
3DFACE
  8
0
 10
0.2641451954841614
 20
-0.3016069531440735
 30
0.5415387153625488
 11
0.3535136878490448
 21
-0.2403380274772644
 31
0.5414484143257141
 12
0.3751266300678253
 22
-0.17441512644290924
 32
0.9147909283638
 13
0.26419785618782043
 23
-0.23317644000053406
 33
0.9149733185768127
  0
3DFACE
  8
0
 10
0.26419785618782043
 20
-0.23317644000053406
 30
0.9149733185768127
 11
0.3751266300678253
 21
-0.17441512644290924
 31
0.9147909283638
 12
0.37930792570114136
 22
-0.16663162410259247
 32
1.1551090478897095
 13
0.2642035186290741
 23
-0.22782942652702332
 33
1.1552295684814453
  0
3DFACE
  8
0
 10
0.3751266300678253
 20
-0.17441512644290924
 30
0.9147909283638
 11
0.416134238243103
 21
-0.03648383542895317
 31
0.9146797060966492
 12
0.4190617501735687
 22
-0.024440735578536987
 32
1.1549941301345825
 13
0.37930792570114136
 23
-0.16663162410259247
 33
1.1551090478897095
  0
3DFACE
  8
0
 10
0.15232324600219727
 20
-0.17496252059936523
 30
0.9147946238517761
 11
0.26419785618782043
 21
-0.23317644000053406
 31
0.9149733185768127
 12
0.2642035186290741
 22
-0.22782942652702332
 32
1.1552295684814453
 13
0.1481565535068512
 23
-0.1678440123796463
 33
1.1551027297973633
  0
3DFACE
  8
0
 10
0.10959309339523315
 20
-0.030660361051559448
 30
0.9143922924995422
 11
0.15232324600219727
 21
-0.17496252059936523
 31
0.9147946238517761
 12
0.1481565535068512
 22
-0.1678440123796463
 32
1.1551027297973633
 13
0.10611304640769958
 23
-0.01823105663061142
 33
1.1546802520751953
  0
3DFACE
  8
0
 10
0.15542137622833252
 20
0.10282324254512787
 30
0.9139489531517029
 11
0.10959309339523315
 21
-0.030660361051559448
 31
0.9143922924995422
 12
0.10611304640769958
 22
-0.01823105663061142
 32
1.1546802520751953
 13
0.15307241678237915
 23
0.11614023149013519
 33
1.1538350582122803
  0
3DFACE
  8
0
 10
0.2641887068748474
 20
0.1546642929315567
 30
0.9131924510002136
 11
0.15542137622833252
 21
0.10282324254512787
 31
0.9139489531517029
 12
0.15307241678237915
 22
0.11614023149013519
 32
1.1538350582122803
 13
0.2641887068748474
 23
0.16727124154567719
 33
1.1527814865112305
  0
3DFACE
  8
0
 10
0.37202897667884827
 20
0.09656387567520142
 30
0.9143370985984802
 11
0.2641887068748474
 21
0.1546642929315567
 31
0.9131924510002136
 12
0.2641887068748474
 22
0.16727124154567719
 32
1.1527814865112305
 13
0.3741837739944458
 23
0.10836374759674072
 33
1.1543227434158325
  0
3DFACE
  8
0
 10
0.416134238243103
 20
-0.03648383542895317
 30
0.9146797060966492
 11
0.37202897667884827
 21
0.09656387567520142
 31
0.9143370985984802
 12
0.3741837739944458
 22
0.10836374759674072
 32
1.1543227434158325
 13
0.4190617501735687
 23
-0.024440735578536987
 33
1.1549941301345825
  0
3DFACE
  8
0
 10
0.16519379615783691
 20
0.08965189754962921
 30
-0.0030462443828582764
 11
0.2641887068748474
 21
0.19597205519676208
 31
-0.0030462443828582764
 12
0.3631836175918579
 22
0.0896519273519516
 32
-0.0030462443828582764
 13
0.3631836175918579
 23
0.0896519273519516
 33
-0.0030462443828582764
  0
3DFACE
  8
0
 10
0.40418875217437744
 20
-0.16702790558338165
 30
-0.0030462443828582764
 11
0.16519379615783691
 21
0.08965189754962921
 31
-0.0030462443828582764
 12
0.3631836175918579
 22
0.0896519273519516
 32
-0.0030462443828582764
 13
0.3631836175918579
 23
0.0896519273519516
 33
-0.0030462443828582764
  0
3DFACE
  8
0
 10
0.40418875217437744
 20
-0.16702790558338165
 30
-0.0030462443828582764
 11
0.12418866157531738
 21
-0.16702798008918762
 31
-0.0030462443828582764
 12
0.16519379615783691
 22
0.08965189754962921
 32
-0.0030462443828582764
 13
0.16519379615783691
 23
0.08965189754962921
 33
-0.0030462443828582764
  0
3DFACE
  8
0
 10
0.40418875217437744
 20
-0.16702790558338165
 30
-0.0030462443828582764
 11
0.3631836175918579
 21
-0.4237075448036194
 31
-0.0030462443828582764
 12
0.12418866157531738
 22
-0.16702798008918762
 32
-0.0030462443828582764
 13
0.12418866157531738
 23
-0.16702798008918762
 33
-0.0030462443828582764
  0
3DFACE
  8
0
 10
0.3631836175918579
 20
-0.4237075448036194
 30
-0.0030462443828582764
 11
0.16519379615783691
 21
-0.42370760440826416
 31
-0.0030462443828582764
 12
0.12418866157531738
 22
-0.16702798008918762
 32
-0.0030462443828582764
 13
0.12418866157531738
 23
-0.16702798008918762
 33
-0.0030462443828582764
  0
3DFACE
  8
0
 10
0.3631836175918579
 20
-0.4237075448036194
 30
-0.0030462443828582764
 11
0.2641887068748474
 21
-0.5300281047821045
 31
-0.0030462443828582764
 12
0.16519379615783691
 22
-0.42370760440826416
 32
-0.0030462443828582764
 13
0.16519379615783691
 23
-0.42370760440826416
 33
-0.0030462443828582764
  0
3DFACE
  8
0
 10
0.2629414498806
 20
0.24657827615737915
 30
2.1719584465026855
 11
0.3962244987487793
 21
0.3798924386501312
 31
2.4172773361206055
 12
0.6349509358406067
 22
0.14395415782928467
 32
2.448925733566284
 13
0.3817353844642639
 23
0.1727692186832428
 33
2.271958351135254
  0
3DFACE
  8
0
 10
0.6349509358406067
 20
0.14395415782928467
 30
2.448925733566284
 11
0.6349152326583862
 21
-0.14394748210906982
 31
2.4491093158721924
 12
0.40854838490486145
 22
0.010724125429987907
 32
2.346684455871582
 13
0.3817353844642639
 23
0.1727692186832428
 33
2.271958351135254
  0
3DFACE
  8
0
 10
0.40854838490486145
 20
0.010724125429987907
 30
2.346684455871582
 11
0.6349152326583862
 21
-0.14394748210906982
 31
2.4491093158721924
 12
0.39622437953948975
 22
-0.3798925280570984
 32
2.4172773361206055
 13
0.3817353844642639
 23
-0.1836126744747162
 33
2.271958351135254
  0
3DFACE
  8
0
 10
0.3817353844642639
 20
-0.1836126744747162
 30
2.271958351135254
 11
0.39622437953948975
 21
-0.3798925280570984
 31
2.4172773361206055
 12
-5.165499317172362e-08
 22
-0.46957293152809143
 32
2.4172773361206055
 13
0.26294147968292236
 23
-0.25742194056510925
 33
2.1719584465026855
  0
3DFACE
  8
0
 10
0.3962244987487793
 20
0.3798924386501312
 30
2.4172773361206055
 11
0.2629414498806
 21
0.24657827615737915
 31
2.1719584465026855
 12
-0.26256826519966125
 22
0.24657829105854034
 32
2.1719584465026855
 13
-0.26256826519966125
 23
0.24657829105854034
 33
2.1719584465026855
  0
3DFACE
  8
0
 10
0.3962244987487793
 20
0.3798924386501312
 30
2.4172773361206055
 11
-0.26256826519966125
 21
0.24657829105854034
 31
2.1719584465026855
 12
-0.3962242305278778
 22
0.3798925578594208
 32
2.4172773361206055
 13
-0.3962242305278778
 23
0.3798925578594208
 33
2.4172773361206055
  0
3DFACE
  8
0
 10
7.276457214544507e-09
 20
0.46957293152809143
 30
2.4172773361206055
 11
0.3962244987487793
 21
0.3798924386501312
 31
2.4172773361206055
 12
-0.3962242305278778
 22
0.3798925578594208
 32
2.4172773361206055
 13
-0.3962242305278778
 23
0.3798925578594208
 33
2.4172773361206055
  0
3DFACE
  8
0
 10
-0.1437743902206421
 20
0.1727692037820816
 30
2.071958541870117
 11
-0.26256826519966125
 21
0.24657829105854034
 31
2.1719584465026855
 12
0.2629414498806
 22
0.24657827615737915
 32
2.1719584465026855
 13
0.1441475749015808
 23
0.1727692037820816
 33
2.071958541870117
  0
3DFACE
  8
0
 10
-0.09456825256347656
 20
-0.005421843379735947
 30
1.9719583988189697
 11
-0.1437743902206421
 21
0.1727692037820816
 31
2.071958541870117
 12
0.1441475749015808
 22
0.1727692037820816
 32
2.071958541870117
 13
0.09494143724441528
 23
-0.005421843379735947
 33
1.9719583988189697
  0
3DFACE
  8
0
 10
-0.1437743902206421
 20
-0.1836126744747162
 30
2.071958541870117
 11
-0.09456825256347656
 21
-0.005421843379735947
 31
1.9719583988189697
 12
0.09494143724441528
 22
-0.005421843379735947
 32
1.9719583988189697
 13
0.1441475749015808
 23
-0.1836126744747162
 33
2.071958541870117
  0
3DFACE
  8
0
 10
-0.26256829500198364
 20
-0.25742194056510925
 30
2.1719584465026855
 11
-0.1437743902206421
 21
-0.1836126744747162
 31
2.071958541870117
 12
0.1441475749015808
 22
-0.1836126744747162
 32
2.071958541870117
 13
0.26294147968292236
 23
-0.25742194056510925
 33
2.1719584465026855
  0
3DFACE
  8
0
 10
-0.26256829500198364
 20
-0.25742194056510925
 30
2.1719584465026855
 11
0.26294147968292236
 21
-0.25742194056510925
 31
2.1719584465026855
 12
-5.165499317172362e-08
 22
-0.46957293152809143
 32
2.4172773361206055
 13
-5.165499317172362e-08
 23
-0.46957293152809143
 33
2.4172773361206055
  0
3DFACE
  8
0
 10
0.16519379615783691
 20
-0.42370760440826416
 30
-0.0030462443828582764
 11
0.2641887068748474
 21
-0.5300281047821045
 31
-0.0030462443828582764
 12
0.2641451954841614
 22
-0.3016069531440735
 32
0.5415387153625488
 13
0.17429977655410767
 23
-0.24036389589309692
 33
0.5414413809776306
  0
3DFACE
  8
0
 10
0.12418866157531738
 20
-0.16702798008918762
 30
-0.0030462443828582764
 11
0.16519379615783691
 21
-0.42370760440826416
 31
-0.0030462443828582764
 12
0.17429977655410767
 22
-0.24036389589309692
 32
0.5414413809776306
 13
0.11572253704071045
 23
-0.08792835474014282
 33
0.5412042737007141
  0
3DFACE
  8
0
 10
0.16519379615783691
 20
0.08965189754962921
 30
-0.0030462443828582764
 11
0.12418866157531738
 21
-0.16702798008918762
 31
-0.0030462443828582764
 12
0.11572253704071045
 22
-0.08792835474014282
 32
0.5412042737007141
 13
0.15952712297439575
 23
0.09728944301605225
 33
0.5407501459121704
  0
3DFACE
  8
0
 10
0.2641887068748474
 20
0.19597205519676208
 30
-0.0030462443828582764
 11
0.16519379615783691
 21
0.08965189754962921
 31
-0.0030462443828582764
 12
0.15952712297439575
 22
0.09728944301605225
 32
0.5407501459121704
 13
0.2641887068748474
 23
0.172019362449646
 33
0.5403096675872803
  0
3DFACE
  8
0
 10
0.3631836175918579
 20
0.0896519273519516
 30
-0.0030462443828582764
 11
0.2641887068748474
 21
0.19597205519676208
 31
-0.0030462443828582764
 12
0.2641887068748474
 22
0.172019362449646
 32
0.5403096675872803
 13
0.3683127462863922
 23
0.09365993738174438
 33
0.5409823060035706
  0
3DFACE
  8
0
 10
0.40418875217437744
 20
-0.16702790558338165
 30
-0.0030462443828582764
 11
0.3631836175918579
 21
0.0896519273519516
 31
-0.0030462443828582764
 12
0.3683127462863922
 22
0.09365993738174438
 32
0.5409823060035706
 13
0.4111175537109375
 23
-0.09130743891000748
 33
0.5413609743118286
  0
3DFACE
  8
0
 10
0.4190617501735687
 20
-0.024440735578536987
 30
1.1549941301345825
 11
0.3741837739944458
 21
0.10836374759674072
 31
1.1543227434158325
 12
0.3817353844642639
 22
0.1727692186832428
 32
2.271958351135254
 13
0.40854838490486145
 23
0.010724125429987907
 33
2.346684455871582
  0
3DFACE
  8
0
 10
0.3741837739944458
 20
0.10836374759674072
 30
1.1543227434158325
 11
0.2641887068748474
 21
0.16727124154567719
 31
1.1527814865112305
 12
0.2629414498806
 22
0.24657827615737915
 32
2.1719584465026855
 13
0.3817353844642639
 23
0.1727692186832428
 33
2.271958351135254
  0
3DFACE
  8
0
 10
0.2641887068748474
 20
0.16727124154567719
 30
1.1527814865112305
 11
0.15307241678237915
 21
0.11614023149013519
 31
1.1538350582122803
 12
0.1441475749015808
 22
0.1727692037820816
 32
2.071958541870117
 13
0.2629414498806
 23
0.24657827615737915
 33
2.1719584465026855
  0
3DFACE
  8
0
 10
0.15307241678237915
 20
0.11614023149013519
 30
1.1538350582122803
 11
0.10611304640769958
 21
-0.01823105663061142
 31
1.1546802520751953
 12
0.09494143724441528
 22
-0.005421843379735947
 32
1.9719583988189697
 13
0.1441475749015808
 23
0.1727692037820816
 33
2.071958541870117
  0
3DFACE
  8
0
 10
0.10611304640769958
 20
-0.01823105663061142
 30
1.1546802520751953
 11
0.1481565535068512
 21
-0.1678440123796463
 31
1.1551027297973633
 12
0.1441475749015808
 22
-0.1836126744747162
 32
2.071958541870117
 13
0.09494143724441528
 23
-0.005421843379735947
 33
1.9719583988189697
  0
3DFACE
  8
0
 10
0.1481565535068512
 20
-0.1678440123796463
 30
1.1551027297973633
 11
0.2642035186290741
 21
-0.22782942652702332
 31
1.1552295684814453
 12
0.26294147968292236
 22
-0.25742194056510925
 32
2.1719584465026855
 13
0.1441475749015808
 23
-0.1836126744747162
 33
2.071958541870117
  0
3DFACE
  8
0
 10
0.37930792570114136
 20
-0.16663162410259247
 30
1.1551090478897095
 11
0.4190617501735687
 21
-0.024440735578536987
 31
1.1549941301345825
 12
0.40854838490486145
 22
0.010724125429987907
 32
2.346684455871582
 13
0.3817353844642639
 23
-0.1836126744747162
 33
2.271958351135254
  0
3DFACE
  8
0
 10
0.2642035186290741
 20
-0.22782942652702332
 30
1.1552295684814453
 11
0.37930792570114136
 21
-0.16663162410259247
 31
1.1551090478897095
 12
0.3817353844642639
 22
-0.1836126744747162
 32
2.271958351135254
 13
0.26294147968292236
 23
-0.25742194056510925
 33
2.1719584465026855
  0
3DFACE
  8
0
 10
0.8952005505561829
 20
-0.08899689465761185
 30
3.9039177894592285
 11
0.8958017230033875
 21
-0.1555955410003662
 31
3.788316249847412
 12
0.8958017230033875
 22
-0.10588609427213669
 32
3.8136489391326904
 13
0.8958017230033875
 23
-0.10588609427213669
 33
3.8136489391326904
  0
3DFACE
  8
0
 10
0.43962934613227844
 20
0.11652293801307678
 30
3.789443016052246
 11
0.41661494970321655
 21
0.0900747999548912
 31
3.907806873321533
 12
0.8952005505561829
 22
0.08672261238098145
 32
3.9046788215637207
 13
0.8954377770423889
 23
0.1555502563714981
 33
3.789607524871826
  0
3DFACE
  8
0
 10
0.41661494970321655
 20
0.0900747999548912
 30
3.907806873321533
 11
0.4108564555644989
 21
7.450580596923828e-09
 31
3.937422752380371
 12
0.8952005505561829
 22
3.115984782198211e-06
 32
3.936811923980713
 13
0.8952005505561829
 23
0.08672261238098145
 33
3.9046788215637207
  0
3DFACE
  8
0
 10
0.8954377770423889
 20
0.1555502563714981
 30
3.789607524871826
 11
0.8952005505561829
 21
0.08672261238098145
 31
3.9046788215637207
 12
0.8954377770423889
 22
0.10585222393274307
 32
3.814527750015259
 13
0.8954377770423889
 23
0.10585222393274307
 33
3.814527750015259
  0
3DFACE
  8
0
 10
-0.8951560854911804
 20
0.08899694681167603
 30
3.9039177894592285
 11
-0.8957280516624451
 21
0.1555977314710617
 31
3.788419723510742
 12
-0.8957280516624451
 22
0.10588452965021133
 32
3.8137195110321045
 13
-0.8957280516624451
 23
0.10588452965021133
 33
3.8137195110321045
  0
3DFACE
  8
0
 10
-0.895587682723999
 20
-0.1555715799331665
 30
3.7889180183410645
 11
-0.8951560854911804
 21
-0.08899691700935364
 31
3.9039177894592285
 12
-0.895587682723999
 22
-0.10586979240179062
 32
3.814058542251587
 13
-0.895587682723999
 23
-0.10586979240179062
 33
3.814058542251587
  0
3DFACE
  8
0
 10
-0.8951560854911804
 20
3.1282647796615493e-06
 30
3.936811923980713
 11
-0.8951560854911804
 21
0.08899694681167603
 31
3.9039177894592285
 12
-1.4560225009918213
 22
0.08672265708446503
 32
3.9123878479003906
 13
-1.4560225009918213
 23
3.1282647796615493e-06
 33
3.936811923980713
  0
3DFACE
  8
0
 10
-0.895587682723999
 20
-0.10586979240179062
 30
3.814058542251587
 11
-0.8951560854911804
 21
-0.08899691700935364
 31
3.9039177894592285
 12
-1.4560225009918213
 22
-0.08672569692134857
 32
3.9123878479003906
 13
-1.4568209648132324
 23
-0.10586979240179062
 33
3.814058542251587
  0
3DFACE
  8
0
 10
-0.8951560854911804
 20
0.08899694681167603
 30
3.9039177894592285
 11
-0.8957280516624451
 21
0.10588452965021133
 31
3.8137195110321045
 12
-1.4570807218551636
 22
0.10588452965021133
 32
3.8137195110321045
 13
-1.4560225009918213
 23
0.08672265708446503
 33
3.9123878479003906
  0
3DFACE
  8
0
 10
-0.8951560854911804
 20
-0.08899691700935364
 30
3.9039177894592285
 11
-0.8951560854911804
 21
3.1282647796615493e-06
 31
3.936811923980713
 12
-1.4560225009918213
 22
3.1282647796615493e-06
 32
3.936811923980713
 13
-1.4560225009918213
 23
-0.08672569692134857
 33
3.9123878479003906
  0
3DFACE
  8
0
 10
0.8952005505561829
 20
3.115984782198211e-06
 30
3.936811923980713
 11
0.8952005505561829
 21
-0.08899689465761185
 31
3.9039177894592285
 12
1.556137204170227
 22
-0.08672566711902618
 32
3.9046788215637207
 13
1.556137204170227
 23
3.115984782198211e-06
 33
3.936811923980713
  0
3DFACE
  8
0
 10
0.8952005505561829
 20
-0.08899689465761185
 30
3.9039177894592285
 11
0.8958017230033875
 21
-0.10588609427213669
 31
3.8136489391326904
 12
1.5572494268417358
 22
-0.10588609427213669
 32
3.8136489391326904
 13
1.556137204170227
 23
-0.08672566711902618
 33
3.9046788215637207
  0
3DFACE
  8
0
 10
0.253923237323761
 20
0.23299695551395416
 30
3.937422752380371
 11
0.13330963253974915
 21
0.15727294981479645
 31
4.049126148223877
 12
0.21569956839084625
 22
0.06007291376590729
 32
4.049126148223877
 13
0.41661494970321655
 23
0.0900747999548912
 33
3.907806873321533
  0
3DFACE
  8
0
 10
0.21569956839084625
 20
0.06007291376590729
 30
4.049126148223877
 11
0.4108564555644989
 21
7.450580596923828e-09
 31
3.937422752380371
 12
0.41661494970321655
 22
0.0900747999548912
 32
3.907806873321533
 13
0.41661494970321655
 23
0.0900747999548912
 33
3.907806873321533
  0
3DFACE
  8
0
 10
0.21569956839084625
 20
0.06007291376590729
 30
4.049126148223877
 11
0.21569962799549103
 21
-0.06674766540527344
 31
4.047709941864014
 12
0.4108564555644989
 22
7.450580596923828e-09
 32
3.937422752380371
 13
0.4108564555644989
 23
7.450580596923828e-09
 33
3.937422752380371
  0
3DFACE
  8
0
 10
0.21569962799549103
 20
-0.06674766540527344
 30
4.047709941864014
 11
0.41664835810661316
 21
-0.09008103609085083
 31
3.907634735107422
 12
0.4108564555644989
 22
7.450580596923828e-09
 32
3.937422752380371
 13
0.4108564555644989
 23
7.450580596923828e-09
 33
3.937422752380371
  0
3DFACE
  8
0
 10
-0.2156996876001358
 20
0.06007293984293938
 30
4.049126148223877
 11
-0.1333097219467163
 21
0.15727297961711884
 31
4.049126148223877
 12
-0.2539231479167938
 22
0.23299700021743774
 32
3.937422752380371
 13
-0.41664567589759827
 23
0.09008058905601501
 33
3.9076485633850098
  0
3DFACE
  8
0
 10
-0.2156996876001358
 20
0.06007293984293938
 30
4.049126148223877
 11
-0.41664567589759827
 21
0.09008058905601501
 31
3.9076485633850098
 12
-0.4108564555644989
 22
1.4901161193847656e-08
 32
3.937422752380371
 13
-0.4108564555644989
 23
1.4901161193847656e-08
 33
3.937422752380371
  0
3DFACE
  8
0
 10
-0.21569962799549103
 20
-0.06674768030643463
 30
4.047709941864014
 11
-0.2156996876001358
 21
0.06007293984293938
 31
4.049126148223877
 12
-0.4108564555644989
 22
1.4901161193847656e-08
 32
3.937422752380371
 13
-0.4108564555644989
 23
1.4901161193847656e-08
 33
3.937422752380371
  0
3DFACE
  8
0
 10
-0.21569962799549103
 20
-0.06674768030643463
 30
4.047709941864014
 11
-0.4108564555644989
 21
1.4901161193847656e-08
 31
3.937422752380371
 12
-0.4166328012943268
 22
-0.09007814526557922
 32
3.90771484375
 13
-0.4166328012943268
 23
-0.09007814526557922
 33
3.90771484375
  0
3DFACE
  8
0
 10
0.30680185556411743
 20
-0.27612194418907166
 30
4.088711261749268
 11
0.13330967724323273
 21
-0.17474766075611115
 31
4.047709941864014
 12
0.21569962799549103
 22
-0.06674766540527344
 32
4.047709941864014
 13
0.43388351798057556
 23
-7.466964291324985e-08
 33
4.088711261749268
  0
3DFACE
  8
0
 10
-0.13330970704555511
 20
-0.17474766075611115
 30
4.047709941864014
 11
-0.30680233240127563
 21
-0.2761218249797821
 31
4.088711261749268
 12
-0.43388381600379944
 22
-5.0512399818458675e-11
 32
4.088711261749268
 13
-0.21569962799549103
 23
-0.06674768030643463
 33
4.047709941864014
  0
3DFACE
  8
0
 10
-0.43388381600379944
 20
-5.0512399818458675e-11
 30
4.088711261749268
 11
-0.2156996876001358
 21
0.06007293984293938
 31
4.049126148223877
 12
-0.21569962799549103
 22
-0.06674768030643463
 32
4.047709941864014
 13
-0.21569962799549103
 23
-0.06674768030643463
 33
4.047709941864014
  0
3DFACE
  8
0
 10
0.43388351798057556
 20
-7.466964291324985e-08
 30
4.088711261749268
 11
0.21569962799549103
 21
-0.06674766540527344
 31
4.047709941864014
 12
0.21569956839084625
 22
0.06007291376590729
 32
4.049126148223877
 13
0.21569956839084625
 23
0.06007291376590729
 33
4.049126148223877
  0
3DFACE
  8
0
 10
9.607902029529214e-09
 20
0.2880000174045563
 30
3.937422752380371
 11
-4.8062005930660234e-08
 21
0.213792622089386
 31
4.049126148223877
 12
0.13330963253974915
 22
0.15727294981479645
 32
4.049126148223877
 13
0.253923237323761
 23
0.23299695551395416
 33
3.937422752380371
  0
3DFACE
  8
0
 10
9.607902029529214e-09
 20
0.2880000174045563
 30
3.937422752380371
 11
-0.2539231479167938
 21
0.23299700021743774
 31
3.937422752380371
 12
-0.1333097219467163
 22
0.15727297961711884
 32
4.049126148223877
 13
-4.8062005930660234e-08
 23
0.213792622089386
 33
4.049126148223877
  0
3DFACE
  8
0
 10
-2.7324671236783615e-07
 20
-0.39049533009529114
 30
4.088711261749268
 11
-1.0312581011362454e-08
 21
-0.2160000205039978
 31
4.047709941864014
 12
0.13330967724323273
 22
-0.17474766075611115
 32
4.047709941864014
 13
0.30680185556411743
 23
-0.27612194418907166
 33
4.088711261749268
  0
3DFACE
  8
0
 10
-2.7324671236783615e-07
 20
-0.39049533009529114
 30
4.088711261749268
 11
-0.30680233240127563
 21
-0.2761218249797821
 31
4.088711261749268
 12
-0.13330970704555511
 22
-0.17474766075611115
 32
4.047709941864014
 13
-1.0312581011362454e-08
 23
-0.2160000205039978
 33
4.047709941864014
  0
ENDSEC
  0
EOF
